<?xml version="1.0" encoding="UTF-8" standalone="no"?>
<svg
   width="512"
   height="512"
   viewBox="0 0 512 512"
   version="1.1"
   id="svg4"
   sodipodi:docname="simplex-chat-contact-link.svg"
   inkscape:version="1.2.2 (b0a8486541, 2022-12-01)"
   xmlns:inkscape="http://www.inkscape.org/namespaces/inkscape"
   xmlns:sodipodi="http://sodipodi.sourceforge.net/DTD/sodipodi-0.dtd"
   xmlns="http://www.w3.org/2000/svg"
   xmlns:svg="http://www.w3.org/2000/svg">
  <defs
     id="defs8" />
  <sodipodi:namedview
     id="namedview6"
     pagecolor="#505050"
     bordercolor="#ffffff"
     borderopacity="1"
     inkscape:showpageshadow="0"
     inkscape:pageopacity="0"
     inkscape:pagecheckerboard="1"
     inkscape:deskcolor="#505050"
     showgrid="false"
     inkscape:zoom="1.1503295"
     inkscape:cx="48.247045"
     inkscape:cy="258.62155"
     inkscape:window-width="1920"
     inkscape:window-height="1080"
     inkscape:window-x="0"
     inkscape:window-y="0"
     inkscape:window-maximized="1"
     inkscape:current-layer="svg4" />
  <rect
     style="opacity:1;fill:#ffffff;stroke-width:74.2029"
     id="rect4644"
     width="512"
     height="512"
     x="0"
     y="0" />
  <path
     d="m 29.681159,29.681159 h 7.42029 v 7.42029 h -7.42029 z m 7.42029,0 h 7.42029 v 7.42029 h -7.42029 z m 7.42029,0 h 7.42029 v 7.42029 h -7.42029 z m 7.42029,0 h 7.42029 v 7.42029 h -7.42029 z m 7.42029,0 h 7.42029 v 7.42029 h -7.42029 z m 7.42029,0 h 7.42029 v 7.42029 h -7.42029 z m 7.42029,0 h 7.420289 v 7.42029 h -7.420289 z m 22.260869,0 h 7.420292 v 7.42029 h -7.420292 z m 14.840582,0 h 7.42029 v 7.42029 h -7.42029 z m 37.10145,0 h 7.42029 v 7.42029 h -7.42029 z m 7.42029,0 h 7.42029 v 7.42029 h -7.42029 z m 14.84058,0 h 7.42029 v 7.42029 h -7.42029 z m 7.42029,0 h 7.42029 v 7.42029 h -7.42029 z m 29.68116,0 h 7.42029 v 7.42029 h -7.42029 z m 7.42029,0 h 7.42029 v 7.42029 h -7.42029 z m 29.68116,0 h 7.42029 v 7.42029 h -7.42029 z m 7.42029,0 h 7.42028 v 7.42029 h -7.42028 z m 7.42028,0 h 7.42029 v 7.42029 h -7.42029 z m 22.26087,0 h 7.42029 v 7.42029 h -7.42029 z m 44.52174,0 h 7.42029 v 7.42029 h -7.42029 z m 7.42029,0 h 7.42029 v 7.42029 h -7.42029 z m 7.42029,0 h 7.42029 v 7.42029 h -7.42029 z m 7.42029,0 h 7.42029 v 7.42029 h -7.42029 z m 7.42029,0 h 7.42029 v 7.42029 h -7.42029 z m 7.42029,0 h 7.42029 v 7.42029 h -7.42029 z m 29.68116,0 h 7.42029 v 7.42029 h -7.42029 z m 14.84058,0 h 7.42029 v 7.42029 h -7.42029 z m 7.42029,0 h 7.42029 v 7.42029 h -7.42029 z m 14.84058,0 h 7.42029 v 7.42029 h -7.42029 z m 7.42029,0 h 7.42029 v 7.42029 h -7.42029 z m 7.42029,0 h 7.42029 v 7.42029 h -7.42029 z m 7.42029,0 h 7.42029 v 7.42029 h -7.42029 z m 7.42029,0 h 7.42029 v 7.42029 h -7.42029 z m 7.42029,0 h 7.42029 v 7.42029 h -7.42029 z m 7.42029,0 h 7.42029 v 7.42029 h -7.42029 z m -445.217391,7.42029 h 7.42029 v 7.42029 h -7.42029 z m 44.52174,0 h 7.420289 v 7.42029 h -7.420289 z m 14.840579,0 h 7.42029 v 7.42029 h -7.42029 z m 29.681162,0 h 7.42029 v 7.42029 h -7.42029 z m 22.26087,0 h 7.42029 v 7.42029 h -7.42029 z m 7.42029,0 h 7.42029 v 7.42029 h -7.42029 z m 7.42029,0 h 7.42029 v 7.42029 h -7.42029 z m 7.42029,0 h 7.42029 v 7.42029 h -7.42029 z m 37.10145,0 h 7.42029 v 7.42029 h -7.42029 z m 14.84058,0 h 7.42029 v 7.42029 h -7.42029 z m 14.84058,0 h 7.42029 v 7.42029 h -7.42029 z m 7.42029,0 h 7.42029 v 7.42029 h -7.42029 z m 22.26086,0 h 7.42029 v 7.42029 h -7.42029 z m 14.84058,0 h 7.42029 v 7.42029 h -7.42029 z m 14.84058,0 h 7.42029 v 7.42029 h -7.42029 z m 7.42029,0 h 7.42029 v 7.42029 h -7.42029 z m 7.42029,0 h 7.42029 v 7.42029 h -7.42029 z m 14.84058,0 h 7.42029 v 7.42029 h -7.42029 z m 14.84058,0 h 7.42029 v 7.42029 h -7.42029 z m 7.42029,0 h 7.42029 v 7.42029 h -7.42029 z m 7.42029,0 h 7.42029 v 7.42029 h -7.42029 z m 29.68116,0 h 7.42029 v 7.42029 h -7.42029 z m 7.42029,0 h 7.42029 v 7.42029 h -7.42029 z m 7.42029,0 h 7.42029 v 7.42029 h -7.42029 z m 14.84058,0 h 7.42029 v 7.42029 h -7.42029 z m 7.42029,0 h 7.42029 v 7.42029 h -7.42029 z m 14.84058,0 h 7.42029 v 7.42029 h -7.42029 z m 44.52174,0 h 7.42029 v 7.42029 h -7.42029 z m -445.217391,7.42029 h 7.42029 v 7.42029 h -7.42029 z m 14.84058,0 h 7.42029 v 7.42029 h -7.42029 z m 7.42029,0 h 7.42029 v 7.42029 h -7.42029 z m 7.42029,0 h 7.42029 v 7.42029 h -7.42029 z m 14.84058,0 h 7.420289 v 7.42029 h -7.420289 z m 22.260869,0 h 7.420292 v 7.42029 h -7.420292 z m 22.260872,0 h 7.42029 v 7.42029 h -7.42029 z m 7.42029,0 h 7.42029 v 7.42029 h -7.42029 z m 7.42029,0 h 7.42029 v 7.42029 h -7.42029 z m 14.84058,0 h 7.42029 v 7.42029 h -7.42029 z m 14.84058,0 h 7.42029 v 7.42029 h -7.42029 z m 7.42029,0 h 7.42029 v 7.42029 h -7.42029 z m 14.84058,0 h 7.42029 v 7.42029 h -7.42029 z m 7.42029,0 h 7.42029 v 7.42029 h -7.42029 z m 7.42029,0 h 7.42029 v 7.42029 h -7.42029 z m 7.42029,0 h 7.42029 v 7.42029 h -7.42029 z m 14.84058,0 h 7.42029 v 7.42029 h -7.42029 z m 22.26087,0 h 7.42029 v 7.42029 h -7.42029 z m 7.42029,0 h 7.42028 v 7.42029 h -7.42028 z m 14.84057,0 h 7.42029 v 7.42029 h -7.42029 z m 22.26087,0 h 7.42029 v 7.42029 h -7.42029 z m 7.42029,0 h 7.42029 v 7.42029 h -7.42029 z m 22.26087,0 h 7.42029 v 7.42029 h -7.42029 z m 14.84058,0 h 7.42029 v 7.42029 h -7.42029 z m 7.42029,0 h 7.42029 v 7.42029 h -7.42029 z m 14.84058,0 h 7.42029 v 7.42029 h -7.42029 z m 7.42029,0 h 7.42029 v 7.42029 h -7.42029 z m 14.84058,0 h 7.42029 v 7.42029 h -7.42029 z m 14.84058,0 h 7.42029 v 7.42029 h -7.42029 z m 7.42029,0 h 7.42029 v 7.42029 h -7.42029 z m 7.42029,0 h 7.42029 v 7.42029 h -7.42029 z m 7.42029,0 h 7.42029 v 7.42029 h -7.42029 z m 14.84058,0 h 7.42029 v 7.42029 h -7.42029 z m 14.84058,0 h 7.42029 v 7.42029 h -7.42029 z m 7.42029,0 h 7.42029 v 7.42029 h -7.42029 z m 7.42029,0 h 7.42029 v 7.42029 h -7.42029 z m 14.84058,0 h 7.42029 v 7.42029 h -7.42029 z m -445.217391,7.42029 h 7.42029 v 7.42029 h -7.42029 z m 14.84058,0 h 7.42029 v 7.42029 h -7.42029 z m 7.42029,0 h 7.42029 v 7.42029 h -7.42029 z m 7.42029,0 h 7.42029 v 7.42029 h -7.42029 z m 14.84058,0 h 7.420289 v 7.42029 h -7.420289 z m 14.840579,0 h 7.42029 v 7.42029 h -7.42029 z m 14.840582,0 h 7.42029 v 7.42029 h -7.42029 z m 14.84058,0 h 7.42029 v 7.42029 h -7.42029 z m 37.10145,0 h 7.42029 v 7.42029 h -7.42029 z m 44.52174,0 h 7.42029 v 7.42029 h -7.42029 z m 37.10145,0 h 7.42029 v 7.42029 h -7.42029 z m 44.52173,0 h 7.42029 v 7.42029 h -7.42029 z m 29.68116,0 h 7.42029 v 7.42029 h -7.42029 z m 7.42029,0 h 7.42029 v 7.42029 h -7.42029 z m 7.42029,0 h 7.42029 v 7.42029 h -7.42029 z m 7.42029,0 h 7.42029 v 7.42029 h -7.42029 z m 14.84058,0 h 7.42029 v 7.42029 h -7.42029 z m 7.42029,0 h 7.42029 v 7.42029 h -7.42029 z m 7.42029,0 h 7.42029 v 7.42029 h -7.42029 z m 7.42029,0 h 7.42029 v 7.42029 h -7.42029 z m 14.84058,0 h 7.42029 v 7.42029 h -7.42029 z m 14.84058,0 h 7.42029 v 7.42029 h -7.42029 z m 14.84058,0 h 7.42029 v 7.42029 h -7.42029 z m 14.84058,0 h 7.42029 v 7.42029 h -7.42029 z m 14.84058,0 h 7.42029 v 7.42029 h -7.42029 z m 7.42029,0 h 7.42029 v 7.42029 h -7.42029 z m 7.42029,0 h 7.42029 v 7.42029 h -7.42029 z m 14.84058,0 h 7.42029 v 7.42029 h -7.42029 z m -445.217391,7.42029 h 7.42029 v 7.42029 h -7.42029 z m 14.84058,0 h 7.42029 v 7.42029 h -7.42029 z m 7.42029,0 h 7.42029 v 7.42029 h -7.42029 z m 7.42029,0 h 7.42029 v 7.42029 h -7.42029 z m 14.84058,0 h 7.420289 v 7.42029 h -7.420289 z m 22.260869,0 h 7.420292 v 7.42029 h -7.420292 z m 22.260872,0 h 7.42029 v 7.42029 h -7.42029 z m 7.42029,0 h 7.42029 v 7.42029 h -7.42029 z m 29.68116,0 h 7.42029 v 7.42029 h -7.42029 z m 22.26087,0 h 7.42029 v 7.42029 h -7.42029 z m 7.42029,0 h 7.42029 v 7.42029 h -7.42029 z m 14.84058,0 h 7.42029 v 7.42029 h -7.42029 z m 7.42029,0 h 7.42029 v 7.42029 h -7.42029 z m 7.42029,0 h 7.42029 v 7.42029 h -7.42029 z m 7.42029,0 h 7.42029 v 7.42029 h -7.42029 z m 7.42029,0 h 7.42029 v 7.42029 h -7.42029 z m 7.42029,0 h 7.42029 v 7.42029 h -7.42029 z m 7.42029,0 h 7.42029 v 7.42029 h -7.42029 z m 7.42029,0 h 7.42028 v 7.42029 h -7.42028 z m 7.42028,0 h 7.42029 v 7.42029 h -7.42029 z m 7.42029,0 h 7.42029 v 7.42029 h -7.42029 z m 7.42029,0 h 7.42029 v 7.42029 h -7.42029 z m 14.84058,0 h 7.42029 v 7.42029 h -7.42029 z m 7.42029,0 h 7.42029 v 7.42029 h -7.42029 z m 7.42029,0 h 7.42029 v 7.42029 h -7.42029 z m 7.42029,0 h 7.42029 v 7.42029 h -7.42029 z m 7.42029,0 h 7.42029 v 7.42029 h -7.42029 z m 7.42029,0 h 7.42029 v 7.42029 h -7.42029 z m 7.42029,0 h 7.42029 v 7.42029 h -7.42029 z m 7.42029,0 h 7.42029 v 7.42029 h -7.42029 z m 14.84058,0 h 7.42029 v 7.42029 h -7.42029 z m 22.26087,0 h 7.42029 v 7.42029 h -7.42029 z m 14.84058,0 h 7.42029 v 7.42029 h -7.42029 z m 7.42029,0 h 7.42029 v 7.42029 h -7.42029 z m 7.42029,0 h 7.42029 v 7.42029 h -7.42029 z m 22.26087,0 h 7.42029 v 7.42029 h -7.42029 z m 14.84058,0 h 7.42029 v 7.42029 h -7.42029 z m 7.42029,0 h 7.42029 v 7.42029 h -7.42029 z m 7.42029,0 h 7.42029 v 7.42029 h -7.42029 z m 14.84058,0 h 7.42029 v 7.42029 h -7.42029 z m -445.217391,7.42029 h 7.42029 v 7.42029 h -7.42029 z m 44.52174,0 h 7.420289 v 7.42029 h -7.420289 z m 14.840579,0 h 7.42029 v 7.42029 h -7.42029 z m 22.260872,0 h 7.42029 v 7.42029 h -7.42029 z m 7.42029,0 h 7.42029 v 7.42029 h -7.42029 z m 7.42029,0 h 7.42029 v 7.42029 h -7.42029 z m 22.26087,0 h 7.42029 v 7.42029 h -7.42029 z m 14.84058,0 h 7.42029 v 7.42029 h -7.42029 z m 7.42029,0 h 7.42029 v 7.42029 h -7.42029 z m 7.42029,0 h 7.42029 v 7.42029 h -7.42029 z m 22.26087,0 h 7.42029 v 7.42029 h -7.42029 z m 14.84058,0 h 7.42029 v 7.42029 h -7.42029 z m 14.84058,0 h 7.42029 v 7.42029 h -7.42029 z m 7.42029,0 h 7.42029 v 7.42029 h -7.42029 z m 29.68115,0 h 7.42029 v 7.42029 h -7.42029 z m 7.42029,0 h 7.42029 v 7.42029 h -7.42029 z m 14.84058,0 h 7.42029 v 7.42029 h -7.42029 z m 7.42029,0 h 7.42029 v 7.42029 h -7.42029 z m 14.84058,0 h 7.42029 v 7.42029 h -7.42029 z m 66.78261,0 h 7.42029 v 7.42029 h -7.42029 z m 7.42029,0 h 7.42029 v 7.42029 h -7.42029 z m 14.84058,0 h 7.42029 v 7.42029 h -7.42029 z m 29.68116,0 h 7.42029 v 7.42029 h -7.42029 z m 44.52174,0 h 7.42029 v 7.42029 h -7.42029 z m -445.217391,7.42029 h 7.42029 v 7.420289 h -7.42029 z m 7.42029,0 h 7.42029 v 7.420289 h -7.42029 z m 7.42029,0 h 7.42029 v 7.420289 h -7.42029 z m 7.42029,0 h 7.42029 v 7.420289 h -7.42029 z m 7.42029,0 h 7.42029 v 7.420289 h -7.42029 z m 7.42029,0 h 7.42029 v 7.420289 h -7.42029 z m 7.42029,0 h 7.420289 v 7.420289 h -7.420289 z m 14.840579,0 h 7.42029 v 7.420289 h -7.42029 z m 14.840582,0 h 7.42029 v 7.420289 h -7.42029 z m 14.84058,0 h 7.42029 v 7.420289 h -7.42029 z m 14.84058,0 h 7.42029 v 7.420289 h -7.42029 z m 14.84058,0 h 7.42029 v 7.420289 h -7.42029 z m 14.84058,0 h 7.42029 v 7.420289 h -7.42029 z m 14.84058,0 h 7.42029 v 7.420289 h -7.42029 z m 14.84058,0 h 7.42029 v 7.420289 h -7.42029 z m 14.84058,0 h 7.42029 v 7.420289 h -7.42029 z m 14.84058,0 h 7.42029 v 7.420289 h -7.42029 z m 14.84058,0 h 7.42029 v 7.420289 h -7.42029 z m 14.84058,0 h 7.42028 v 7.420289 h -7.42028 z m 14.84057,0 h 7.42029 v 7.420289 h -7.42029 z m 14.84058,0 h 7.42029 v 7.420289 h -7.42029 z m 14.84058,0 h 7.42029 v 7.420289 h -7.42029 z m 14.84058,0 h 7.42029 v 7.420289 h -7.42029 z m 14.84058,0 h 7.42029 v 7.420289 h -7.42029 z m 14.84058,0 h 7.42029 v 7.420289 h -7.42029 z m 14.84058,0 h 7.42029 v 7.420289 h -7.42029 z m 14.84058,0 h 7.42029 v 7.420289 h -7.42029 z m 14.84058,0 h 7.42029 v 7.420289 h -7.42029 z m 14.84058,0 h 7.42029 v 7.420289 h -7.42029 z m 14.84058,0 h 7.42029 v 7.420289 h -7.42029 z m 14.84058,0 h 7.42029 v 7.420289 h -7.42029 z m 7.42029,0 h 7.42029 v 7.420289 h -7.42029 z m 7.42029,0 h 7.42029 v 7.420289 h -7.42029 z m 7.42029,0 h 7.42029 v 7.420289 h -7.42029 z m 7.42029,0 h 7.42029 v 7.420289 h -7.42029 z m 7.42029,0 h 7.42029 v 7.420289 h -7.42029 z m 7.42029,0 h 7.42029 v 7.420289 h -7.42029 z M 96.463768,81.623188 h 7.420292 v 7.42029 h -7.420292 z m 44.521742,0 h 7.42029 v 7.42029 h -7.42029 z m 22.26087,0 h 7.42029 v 7.42029 h -7.42029 z m 7.42029,0 h 7.42029 v 7.42029 h -7.42029 z m 14.84058,0 h 7.42029 v 7.42029 h -7.42029 z m 14.84058,0 h 7.42029 v 7.42029 h -7.42029 z m 7.42029,0 h 7.42029 v 7.42029 h -7.42029 z m 14.84058,0 h 7.42029 v 7.42029 h -7.42029 z m 14.84058,0 h 7.42029 v 7.42029 h -7.42029 z m 29.68115,0 h 7.42029 v 7.42029 h -7.42029 z m 22.26087,0 h 7.42029 v 7.42029 h -7.42029 z m 7.42029,0 h 7.42029 v 7.42029 h -7.42029 z m 7.42029,0 h 7.42029 v 7.42029 h -7.42029 z m 14.84058,0 h 7.42029 v 7.42029 h -7.42029 z m 7.42029,0 h 7.42029 v 7.42029 h -7.42029 z m 7.42029,0 h 7.42029 v 7.42029 h -7.42029 z m 7.42029,0 h 7.42029 v 7.42029 h -7.42029 z m 7.42029,0 h 7.42029 v 7.42029 h -7.42029 z m 29.68116,0 h 7.42029 v 7.42029 h -7.42029 z m 14.84058,0 h 7.42029 v 7.42029 h -7.42029 z m -363.594201,7.42029 h 7.42029 v 7.42029 h -7.42029 z m 7.42029,0 h 7.42029 v 7.42029 h -7.42029 z m 7.42029,0 h 7.42029 v 7.42029 h -7.42029 z m 7.42029,0 h 7.42029 v 7.42029 h -7.42029 z m 7.42029,0 h 7.42029 v 7.42029 h -7.42029 z m 14.84058,0 h 7.420289 v 7.42029 h -7.420289 z m 7.420289,0 h 7.42029 v 7.42029 h -7.42029 z m 7.42029,0 h 7.42029 v 7.42029 h -7.42029 z m 7.42029,0 h 7.420292 v 7.42029 h -7.420292 z m 7.420292,0 h 7.42029 v 7.42029 h -7.42029 z m 14.84058,0 h 7.42029 v 7.42029 h -7.42029 z m 7.42029,0 h 7.42029 v 7.42029 h -7.42029 z m 14.84058,0 h 7.42029 v 7.42029 h -7.42029 z m 7.42029,0 h 7.42029 v 7.42029 h -7.42029 z m 14.84058,0 h 7.42029 v 7.42029 h -7.42029 z m 14.84058,0 h 7.42029 v 7.42029 h -7.42029 z m 7.42029,0 h 7.42029 v 7.42029 h -7.42029 z m 7.42029,0 h 7.42029 v 7.42029 h -7.42029 z m 7.42029,0 h 7.42029 v 7.42029 h -7.42029 z m 14.84058,0 h 7.42029 v 7.42029 h -7.42029 z m 14.84058,0 h 7.42029 v 7.42029 h -7.42029 z m 7.42029,0 h 7.42029 v 7.42029 h -7.42029 z m 7.42029,0 h 7.42029 v 7.42029 h -7.42029 z m 7.42029,0 h 7.42028 v 7.42029 h -7.42028 z m 7.42028,0 h 7.42029 v 7.42029 h -7.42029 z m 7.42029,0 h 7.42029 v 7.42029 h -7.42029 z m 14.84058,0 h 7.42029 v 7.42029 h -7.42029 z m 7.42029,0 h 7.42029 v 7.42029 h -7.42029 z m 29.68116,0 h 7.42029 v 7.42029 h -7.42029 z m 7.42029,0 h 7.42029 v 7.42029 h -7.42029 z m 37.10145,0 h 7.42029 v 7.42029 h -7.42029 z m 14.84058,0 h 7.42029 v 7.42029 h -7.42029 z m 7.42029,0 h 7.42029 v 7.42029 h -7.42029 z m 7.42029,0 h 7.42029 v 7.42029 h -7.42029 z m 7.42029,0 h 7.42029 v 7.42029 h -7.42029 z m 7.42029,0 h 7.42029 v 7.42029 h -7.42029 z m 14.84058,0 h 7.42029 v 7.42029 h -7.42029 z m 14.84058,0 h 7.42029 v 7.42029 h -7.42029 z m 14.84058,0 h 7.42029 v 7.42029 h -7.42029 z m 14.84058,0 h 7.42029 v 7.42029 h -7.42029 z m -437.797101,7.42029 h 7.42029 v 7.420292 h -7.42029 z m 7.42029,0 h 7.42029 v 7.420292 h -7.42029 z m 7.42029,0 h 7.42029 v 7.420292 h -7.42029 z m 7.42029,0 h 7.42029 v 7.420292 h -7.42029 z m 7.42029,0 h 7.42029 v 7.420292 h -7.42029 z m 7.42029,0 h 7.42029 v 7.420292 h -7.42029 z m 14.840579,0 h 7.42029 v 7.420292 h -7.42029 z m 7.42029,0 h 7.42029 v 7.420292 h -7.42029 z m 14.840582,0 h 7.42029 v 7.420292 h -7.42029 z m 7.42029,0 h 7.42029 v 7.420292 h -7.42029 z m 22.26087,0 h 7.42029 v 7.420292 h -7.42029 z m 7.42029,0 h 7.42029 v 7.420292 h -7.42029 z m 22.26087,0 h 7.42029 v 7.420292 h -7.42029 z m 7.42029,0 h 7.42029 v 7.420292 h -7.42029 z m 7.42029,0 h 7.42029 v 7.420292 h -7.42029 z m 7.42029,0 h 7.42029 v 7.420292 h -7.42029 z m 7.42029,0 h 7.42029 v 7.420292 h -7.42029 z m 7.42029,0 h 7.42029 v 7.420292 h -7.42029 z m 7.42029,0 h 7.42029 v 7.420292 h -7.42029 z m 7.42029,0 h 7.42029 v 7.420292 h -7.42029 z m 7.42029,0 h 7.42029 v 7.420292 h -7.42029 z m 22.26087,0 h 7.42029 v 7.420292 h -7.42029 z m 7.42029,0 h 7.42028 v 7.420292 h -7.42028 z m 7.42028,0 h 7.42029 v 7.420292 h -7.42029 z m 7.42029,0 h 7.42029 v 7.420292 h -7.42029 z m 7.42029,0 h 7.42029 v 7.420292 h -7.42029 z m 14.84058,0 h 7.42029 v 7.420292 h -7.42029 z m 14.84058,0 h 7.42029 v 7.420292 h -7.42029 z m 14.84058,0 h 7.42029 v 7.420292 h -7.42029 z m 22.26087,0 h 7.42029 v 7.420292 h -7.42029 z m 14.84058,0 h 7.42029 v 7.420292 h -7.42029 z m 7.42029,0 h 7.42029 v 7.420292 h -7.42029 z m 14.84058,0 h 7.42029 v 7.420292 h -7.42029 z m 29.68116,0 h 7.42029 v 7.420292 h -7.42029 z m 7.42029,0 h 7.42029 v 7.420292 h -7.42029 z m 22.26087,0 h 7.42029 v 7.420292 h -7.42029 z m 7.42029,0 h 7.42029 v 7.420292 h -7.42029 z m 22.26087,0 h 7.42029 v 7.420292 h -7.42029 z M 44.521739,103.88406 h 7.42029 v 7.42029 h -7.42029 z m 7.42029,0 h 7.42029 v 7.42029 h -7.42029 z m 7.42029,0 h 7.42029 v 7.42029 h -7.42029 z m 14.84058,0 h 7.420289 v 7.42029 h -7.420289 z m 7.420289,0 h 7.42029 v 7.42029 h -7.42029 z m 7.42029,0 h 7.42029 v 7.42029 h -7.42029 z m 7.42029,0 h 7.420292 v 7.42029 h -7.420292 z m 7.420292,0 h 7.42029 v 7.42029 h -7.42029 z m 14.84058,0 h 7.42029 v 7.42029 h -7.42029 z m 29.68116,0 h 7.42029 v 7.42029 h -7.42029 z m 7.42029,0 h 7.42029 v 7.42029 h -7.42029 z m 7.42029,0 h 7.42029 v 7.42029 h -7.42029 z m 14.84058,0 h 7.42029 v 7.42029 h -7.42029 z m 22.26087,0 h 7.42029 v 7.42029 h -7.42029 z m 7.42029,0 h 7.42029 v 7.42029 h -7.42029 z m 7.42029,0 h 7.42029 v 7.42029 h -7.42029 z m 22.26087,0 h 7.42029 v 7.42029 h -7.42029 z m 14.84058,0 h 7.42028 v 7.42029 h -7.42028 z m 14.84057,0 h 7.42029 v 7.42029 h -7.42029 z m 14.84058,0 h 7.42029 v 7.42029 h -7.42029 z m 14.84058,0 h 7.42029 v 7.42029 h -7.42029 z m 7.42029,0 h 7.42029 v 7.42029 h -7.42029 z m 29.68116,0 h 7.42029 v 7.42029 h -7.42029 z m 14.84058,0 h 7.42029 v 7.42029 h -7.42029 z m 14.84058,0 h 7.42029 v 7.42029 h -7.42029 z m 7.42029,0 h 7.42029 v 7.42029 h -7.42029 z m 7.42029,0 h 7.42029 v 7.42029 h -7.42029 z m 7.42029,0 h 7.42029 v 7.42029 h -7.42029 z m 22.26087,0 h 7.42029 v 7.42029 h -7.42029 z m 7.42029,0 h 7.42029 v 7.42029 h -7.42029 z m 51.94203,0 h 7.42029 v 7.42029 h -7.42029 z m 7.42029,0 h 7.42029 v 7.42029 h -7.42029 z m -437.797101,7.42029 h 7.42029 v 7.42029 h -7.42029 z m 14.84058,0 h 7.42029 v 7.42029 h -7.42029 z m 7.42029,0 h 7.42029 v 7.42029 h -7.42029 z m 7.42029,0 h 7.42029 v 7.42029 h -7.42029 z m 37.101451,0 h 7.42029 v 7.42029 h -7.42029 z m 22.26087,0 h 7.42029 v 7.42029 h -7.42029 z m 7.42029,0 h 7.42029 v 7.42029 h -7.42029 z m 7.42029,0 h 7.42029 v 7.42029 h -7.42029 z m 22.26087,0 h 7.42029 v 7.42029 h -7.42029 z m 7.42029,0 h 7.42029 v 7.42029 h -7.42029 z m 22.26087,0 h 7.42029 v 7.42029 h -7.42029 z m 7.42029,0 h 7.42029 v 7.42029 h -7.42029 z m 7.42029,0 h 7.42029 v 7.42029 h -7.42029 z m 14.84058,0 h 7.42029 v 7.42029 h -7.42029 z m 44.52173,0 h 7.42029 v 7.42029 h -7.42029 z m 7.42029,0 h 7.42029 v 7.42029 h -7.42029 z m 14.84058,0 h 7.42029 v 7.42029 h -7.42029 z m 14.84058,0 h 7.42029 v 7.42029 h -7.42029 z m 14.84058,0 h 7.42029 v 7.42029 h -7.42029 z m 14.84058,0 h 7.42029 v 7.42029 h -7.42029 z m 7.42029,0 h 7.42029 v 7.42029 h -7.42029 z m 7.42029,0 h 7.42029 v 7.42029 h -7.42029 z m 7.42029,0 h 7.42029 v 7.42029 h -7.42029 z m 7.42029,0 h 7.42029 v 7.42029 h -7.42029 z m 22.26087,0 h 7.42029 v 7.42029 h -7.42029 z m 7.42029,0 h 7.42029 v 7.42029 h -7.42029 z m 29.68116,0 h 7.42029 v 7.42029 h -7.42029 z m 7.42029,0 h 7.42029 v 7.42029 h -7.42029 z m 7.42029,0 h 7.42029 v 7.42029 h -7.42029 z m 7.42029,0 h 7.42029 v 7.42029 h -7.42029 z m 22.26087,0 h 7.42029 v 7.42029 h -7.42029 z m -437.797101,7.42029 h 7.42029 v 7.42029 h -7.42029 z m 14.84058,0 h 7.42029 v 7.42029 h -7.42029 z m 22.26087,0 h 7.42029 v 7.42029 h -7.42029 z m 7.42029,0 h 7.420289 v 7.42029 h -7.420289 z m 37.101451,0 h 7.42029 v 7.42029 h -7.42029 z m 7.42029,0 h 7.42029 v 7.42029 h -7.42029 z m 37.10145,0 h 7.42029 v 7.42029 h -7.42029 z m 7.42029,0 h 7.42029 v 7.42029 h -7.42029 z m 7.42029,0 h 7.42029 v 7.42029 h -7.42029 z m 14.84058,0 h 7.42029 v 7.42029 h -7.42029 z m 22.26087,0 h 7.42029 v 7.42029 h -7.42029 z m 14.84058,0 h 7.42029 v 7.42029 h -7.42029 z m 14.84058,0 h 7.42029 v 7.42029 h -7.42029 z m 14.84058,0 h 7.42028 v 7.42029 h -7.42028 z m 7.42028,0 h 7.42029 v 7.42029 h -7.42029 z m 22.26087,0 h 7.42029 v 7.42029 h -7.42029 z m 7.42029,0 h 7.42029 v 7.42029 h -7.42029 z m 7.42029,0 h 7.42029 v 7.42029 h -7.42029 z m 7.42029,0 h 7.42029 v 7.42029 h -7.42029 z m 7.42029,0 h 7.42029 v 7.42029 h -7.42029 z m 7.42029,0 h 7.42029 v 7.42029 h -7.42029 z m 7.42029,0 h 7.42029 v 7.42029 h -7.42029 z m 7.42029,0 h 7.42029 v 7.42029 h -7.42029 z m 14.84058,0 h 7.42029 v 7.42029 h -7.42029 z m 22.26087,0 h 7.42029 v 7.42029 h -7.42029 z m 7.42029,0 h 7.42029 v 7.42029 h -7.42029 z m 7.42029,0 h 7.42029 v 7.42029 h -7.42029 z m 7.42029,0 h 7.42029 v 7.42029 h -7.42029 z m 7.42029,0 h 7.42029 v 7.42029 h -7.42029 z m 14.84058,0 h 7.42029 v 7.42029 h -7.42029 z m 7.42029,0 h 7.42029 v 7.42029 h -7.42029 z m 7.42029,0 h 7.42029 v 7.42029 h -7.42029 z m 22.26087,0 h 7.42029 v 7.42029 h -7.42029 z m 7.42029,0 h 7.42029 v 7.42029 h -7.42029 z m 14.84058,0 h 7.42029 v 7.42029 h -7.42029 z m -437.797101,7.42029 h 7.42029 v 7.42029 h -7.42029 z m 7.42029,0 h 7.42029 v 7.42029 h -7.42029 z m 22.26087,0 h 7.42029 v 7.42029 h -7.42029 z m 51.942031,0 h 7.42029 v 7.42029 h -7.42029 z m 7.42029,0 h 7.42029 v 7.42029 h -7.42029 z m 7.42029,0 h 7.42029 v 7.42029 h -7.42029 z m 7.42029,0 h 7.42029 v 7.42029 h -7.42029 z m 7.42029,0 h 7.42029 v 7.42029 h -7.42029 z m 22.26087,0 h 7.42029 v 7.42029 h -7.42029 z m 7.42029,0 h 7.42029 v 7.42029 h -7.42029 z m 7.42029,0 h 7.42029 v 7.42029 h -7.42029 z m 7.42029,0 h 7.42029 v 7.42029 h -7.42029 z m 14.84058,0 h 7.42029 v 7.42029 h -7.42029 z m 7.42029,0 h 7.42029 v 7.42029 h -7.42029 z m 7.42029,0 h 7.42029 v 7.42029 h -7.42029 z m 22.26087,0 h 7.42029 v 7.42029 h -7.42029 z m 7.42029,0 h 7.42028 v 7.42029 h -7.42028 z m 7.42028,0 h 7.42029 v 7.42029 h -7.42029 z m 7.42029,0 h 7.42029 v 7.42029 h -7.42029 z m 7.42029,0 h 7.42029 v 7.42029 h -7.42029 z m 14.84058,0 h 7.42029 v 7.42029 h -7.42029 z m 14.84058,0 h 7.42029 v 7.42029 h -7.42029 z m 22.26087,0 h 7.42029 v 7.42029 h -7.42029 z m 14.84058,0 h 7.42029 v 7.42029 h -7.42029 z m 7.42029,0 h 7.42029 v 7.42029 h -7.42029 z m 7.42029,0 h 7.42029 v 7.42029 h -7.42029 z m 29.68116,0 h 7.42029 v 7.42029 h -7.42029 z m 14.84058,0 h 7.42029 v 7.42029 h -7.42029 z m 7.42029,0 h 7.42029 v 7.42029 h -7.42029 z m 22.26087,0 h 7.42029 v 7.42029 h -7.42029 z m 7.42029,0 h 7.42029 v 7.42029 h -7.42029 z m 7.42029,0 h 7.42029 v 7.42029 h -7.42029 z m -415.536231,7.42029 h 7.42029 v 7.42029 h -7.42029 z m 7.42029,0 h 7.42029 v 7.42029 h -7.42029 z m 14.84058,0 h 7.42029 v 7.42029 h -7.42029 z m 7.42029,0 h 7.42029 v 7.42029 h -7.42029 z m 14.84058,0 h 7.420289 v 7.42029 h -7.420289 z m 29.681161,0 h 7.42029 v 7.42029 h -7.42029 z m 7.42029,0 h 7.42029 v 7.42029 h -7.42029 z m 29.68116,0 h 7.42029 v 7.42029 h -7.42029 z m 14.84058,0 h 7.42029 v 7.42029 h -7.42029 z m 7.42029,0 h 7.42029 v 7.42029 h -7.42029 z m 37.10145,0 h 7.42029 v 7.42029 h -7.42029 z m 7.42029,0 h 7.42029 v 7.42029 h -7.42029 z m 7.42029,0 h 7.42029 v 7.42029 h -7.42029 z m 14.84058,0 h 7.42029 v 7.42029 h -7.42029 z m 7.42029,0 h 7.42029 v 7.42029 h -7.42029 z m 7.42029,0 h 7.42029 v 7.42029 h -7.42029 z m 14.84057,0 h 7.42029 v 7.42029 h -7.42029 z m 7.42029,0 h 7.42029 v 7.42029 h -7.42029 z m 29.68116,0 h 7.42029 v 7.42029 h -7.42029 z m 7.42029,0 h 7.42029 v 7.42029 h -7.42029 z m 7.42029,0 h 7.42029 v 7.42029 h -7.42029 z m 22.26087,0 h 7.42029 v 7.42029 h -7.42029 z m 29.68116,0 h 7.42029 v 7.42029 h -7.42029 z m 7.42029,0 h 7.42029 v 7.42029 h -7.42029 z m 7.42029,0 h 7.42029 v 7.42029 h -7.42029 z m 7.42029,0 h 7.42029 v 7.42029 h -7.42029 z m 7.42029,0 h 7.42029 v 7.42029 h -7.42029 z m 14.84058,0 h 7.42029 v 7.42029 h -7.42029 z m 7.42029,0 h 7.42029 v 7.42029 h -7.42029 z m 7.42029,0 h 7.42029 v 7.42029 h -7.42029 z m 7.42029,0 h 7.42029 v 7.42029 h -7.42029 z m 29.68116,0 h 7.42029 v 7.42029 h -7.42029 z m 14.84058,0 h 7.42029 v 7.42029 h -7.42029 z m -437.797101,7.42029 h 7.42029 v 7.42029 h -7.42029 z m 44.521739,0 h 7.42029 v 7.42029 h -7.42029 z m 29.681162,0 h 7.42029 v 7.42029 h -7.42029 z m 7.42029,0 h 7.42029 v 7.42029 h -7.42029 z m 7.42029,0 h 7.42029 v 7.42029 h -7.42029 z m 29.68116,0 h 7.42029 v 7.42029 h -7.42029 z m 7.42029,0 h 7.42029 v 7.42029 h -7.42029 z m 7.42029,0 h 7.42029 v 7.42029 h -7.42029 z m 14.84058,0 h 7.42029 v 7.42029 h -7.42029 z m 7.42029,0 h 7.42029 v 7.42029 h -7.42029 z m 7.42029,0 h 7.42029 v 7.42029 h -7.42029 z m 7.42029,0 h 7.42029 v 7.42029 h -7.42029 z m 51.94202,0 h 7.42029 v 7.42029 h -7.42029 z m 14.84058,0 h 7.42029 v 7.42029 h -7.42029 z m 14.84058,0 h 7.42029 v 7.42029 h -7.42029 z m 7.42029,0 h 7.42029 v 7.42029 h -7.42029 z m 37.10145,0 h 7.42029 v 7.42029 h -7.42029 z m 7.42029,0 h 7.42029 v 7.42029 h -7.42029 z m 14.84058,0 h 7.42029 v 7.42029 h -7.42029 z m 29.68116,0 h 7.42029 v 7.42029 h -7.42029 z m 44.52174,0 h 7.42029 v 7.42029 h -7.42029 z m 7.42029,0 h 7.42029 v 7.42029 h -7.42029 z m 29.68116,0 h 7.42029 v 7.42029 h -7.42029 z M 29.681159,148.4058 h 7.42029 v 7.42029 h -7.42029 z m 7.42029,0 h 7.42029 v 7.42029 h -7.42029 z m 7.42029,0 h 7.42029 v 7.42029 h -7.42029 z m 7.42029,0 h 7.42029 v 7.42029 h -7.42029 z m 14.84058,0 h 7.42029 v 7.42029 h -7.42029 z m 7.42029,0 h 7.420289 v 7.42029 h -7.420289 z m 29.681161,0 h 7.42029 v 7.42029 h -7.42029 z m 7.42029,0 h 7.42029 v 7.42029 h -7.42029 z m 44.52174,0 h 7.42029 v 7.42029 h -7.42029 z m 7.42029,0 h 7.42029 v 7.42029 h -7.42029 z m 37.10145,0 h 7.42029 v 7.42029 h -7.42029 z m 7.42029,0 h 7.42029 v 7.42029 h -7.42029 z m 7.42029,0 h 7.42029 v 7.42029 h -7.42029 z m 7.42029,0 h 7.42029 v 7.42029 h -7.42029 z m 22.26087,0 h 7.42029 v 7.42029 h -7.42029 z m 7.42029,0 h 7.42028 v 7.42029 h -7.42028 z m 7.42028,0 h 7.42029 v 7.42029 h -7.42029 z m 22.26087,0 h 7.42029 v 7.42029 h -7.42029 z m 7.42029,0 h 7.42029 v 7.42029 h -7.42029 z m 7.42029,0 h 7.42029 v 7.42029 h -7.42029 z m 14.84058,0 h 7.42029 v 7.42029 h -7.42029 z m 14.84058,0 h 7.42029 v 7.42029 h -7.42029 z m 14.84058,0 h 7.42029 v 7.42029 h -7.42029 z m 7.42029,0 h 7.42029 v 7.42029 h -7.42029 z m 22.26087,0 h 7.42029 v 7.42029 h -7.42029 z m 29.68116,0 h 7.42029 v 7.42029 h -7.42029 z m 22.26087,0 h 7.42029 v 7.42029 h -7.42029 z m 14.84058,0 h 7.42029 v 7.42029 h -7.42029 z m 7.42029,0 h 7.42029 v 7.42029 h -7.42029 z m 7.42029,0 h 7.42029 v 7.42029 h -7.42029 z m 7.42029,0 h 7.42029 v 7.42029 h -7.42029 z m 14.84058,0 h 7.42029 v 7.42029 h -7.42029 z m -445.217391,7.42029 h 7.42029 v 7.42029 h -7.42029 z m 7.42029,0 h 7.42029 v 7.42029 h -7.42029 z m 22.26087,0 h 7.42029 v 7.42029 h -7.42029 z m 22.260869,0 h 7.42029 v 7.42029 h -7.42029 z m 7.42029,0 h 7.42029 v 7.42029 h -7.42029 z m 7.42029,0 h 7.420292 v 7.42029 h -7.420292 z m 7.420292,0 h 7.42029 v 7.42029 h -7.42029 z m 7.42029,0 h 7.42029 v 7.42029 h -7.42029 z m 14.84058,0 h 7.42029 v 7.42029 h -7.42029 z m 14.84058,0 h 7.42029 v 7.42029 h -7.42029 z m 14.84058,0 h 7.42029 v 7.42029 h -7.42029 z m 14.84058,0 h 7.42029 v 7.42029 h -7.42029 z m 7.42029,0 h 7.42029 v 7.42029 h -7.42029 z m 7.42029,0 h 7.42029 v 7.42029 h -7.42029 z m 22.26087,0 h 7.42029 v 7.42029 h -7.42029 z m 7.42029,0 h 7.42029 v 7.42029 h -7.42029 z m 7.42029,0 h 7.42029 v 7.42029 h -7.42029 z m 29.68116,0 h 7.42028 v 7.42029 h -7.42028 z m 7.42028,0 h 7.42029 v 7.42029 h -7.42029 z m 37.10145,0 h 7.42029 v 7.42029 h -7.42029 z m 7.42029,0 h 7.42029 v 7.42029 h -7.42029 z m 7.42029,0 h 7.42029 v 7.42029 h -7.42029 z m 14.84058,0 h 7.42029 v 7.42029 h -7.42029 z m 14.84058,0 h 7.42029 v 7.42029 h -7.42029 z m 7.42029,0 h 7.42029 v 7.42029 h -7.42029 z m 44.52174,0 h 7.42029 v 7.42029 h -7.42029 z m 22.26087,0 h 7.42029 v 7.42029 h -7.42029 z m 14.84058,0 h 7.42029 v 7.42029 h -7.42029 z m 14.84058,0 h 7.42029 v 7.42029 h -7.42029 z m 7.42029,0 h 7.42029 v 7.42029 h -7.42029 z m -408.115941,7.42029 h 7.42029 v 7.42029 h -7.42029 z m 29.68116,0 h 7.420289 v 7.42029 h -7.420289 z m 29.681161,0 h 7.42029 v 7.42029 h -7.42029 z m 14.84058,0 h 7.42029 v 7.42029 h -7.42029 z m 7.42029,0 h 7.42029 v 7.42029 h -7.42029 z m 29.68116,0 h 7.42029 v 7.42029 h -7.42029 z m 7.42029,0 h 7.42029 v 7.42029 h -7.42029 z m 22.26087,0 h 7.42029 v 7.42029 h -7.42029 z m 14.84058,0 h 7.42029 v 7.42029 h -7.42029 z m 14.84058,0 h 7.42029 v 7.42029 h -7.42029 z m 14.84058,0 h 7.42029 v 7.42029 h -7.42029 z m 7.42029,0 h 7.42029 v 7.42029 h -7.42029 z m 7.42029,0 h 7.42029 v 7.42029 h -7.42029 z m 14.84057,0 h 7.42029 v 7.42029 h -7.42029 z m 14.84058,0 h 7.42029 v 7.42029 h -7.42029 z m 7.42029,0 h 7.42029 v 7.42029 h -7.42029 z m 7.42029,0 h 7.42029 v 7.42029 h -7.42029 z m 7.42029,0 h 7.42029 v 7.42029 h -7.42029 z m 7.42029,0 h 7.42029 v 7.42029 h -7.42029 z m 14.84058,0 h 7.42029 v 7.42029 h -7.42029 z m 14.84058,0 h 7.42029 v 7.42029 h -7.42029 z m 7.42029,0 h 7.42029 v 7.42029 h -7.42029 z m 7.42029,0 h 7.42029 v 7.42029 h -7.42029 z m 14.84058,0 h 7.42029 v 7.42029 h -7.42029 z m 14.84058,0 h 7.42029 v 7.42029 h -7.42029 z m 7.42029,0 h 7.42029 v 7.42029 h -7.42029 z m 7.42029,0 h 7.42029 v 7.42029 h -7.42029 z m 14.84058,0 h 7.42029 v 7.42029 h -7.42029 z m 7.42029,0 h 7.42029 v 7.42029 h -7.42029 z m 44.52174,0 h 7.42029 v 7.42029 h -7.42029 z m 7.42029,0 h 7.42029 v 7.42029 h -7.42029 z m 7.42029,0 h 7.42029 v 7.42029 h -7.42029 z m -445.217391,7.42029 h 7.42029 v 7.42029 h -7.42029 z m 7.42029,0 h 7.42029 v 7.42029 h -7.42029 z m 7.42029,0 h 7.42029 v 7.42029 h -7.42029 z m 7.42029,0 h 7.42029 v 7.42029 h -7.42029 z m 37.101449,0 h 7.42029 v 7.42029 h -7.42029 z m 14.840582,0 h 7.42029 v 7.42029 h -7.42029 z m 22.26087,0 h 7.42029 v 7.42029 h -7.42029 z m 7.42029,0 h 7.42029 v 7.42029 h -7.42029 z m 7.42029,0 h 7.42029 v 7.42029 h -7.42029 z m 29.68116,0 h 7.42029 v 7.42029 h -7.42029 z m 22.26087,0 h 7.42029 v 7.42029 h -7.42029 z m 7.42029,0 h 7.42029 v 7.42029 h -7.42029 z m 7.42029,0 h 7.42029 v 7.42029 h -7.42029 z m 14.84058,0 h 7.42029 v 7.42029 h -7.42029 z m 29.68116,0 h 7.42028 v 7.42029 h -7.42028 z m 7.42028,0 h 7.42029 v 7.42029 h -7.42029 z m 7.42029,0 h 7.42029 v 7.42029 h -7.42029 z m 29.68116,0 h 7.42029 v 7.42029 h -7.42029 z m 7.42029,0 h 7.42029 v 7.42029 h -7.42029 z m 29.68116,0 h 7.42029 v 7.42029 h -7.42029 z m 7.42029,0 h 7.42029 v 7.42029 h -7.42029 z m 7.42029,0 h 7.42029 v 7.42029 h -7.42029 z m 14.84058,0 h 7.42029 v 7.42029 h -7.42029 z m 14.84058,0 h 7.42029 v 7.42029 h -7.42029 z m 14.84058,0 h 7.42029 v 7.42029 h -7.42029 z m 29.68116,0 h 7.42029 v 7.42029 h -7.42029 z m 7.42029,0 h 7.42029 v 7.42029 h -7.42029 z m 7.42029,0 h 7.42029 v 7.42029 h -7.42029 z m 37.10145,0 h 7.42029 v 7.42029 h -7.42029 z m -445.217391,7.42029 h 7.42029 v 7.42029 h -7.42029 z m 29.68116,0 h 7.42029 v 7.42029 h -7.42029 z m 7.42029,0 h 7.42029 v 7.42029 h -7.42029 z m 7.42029,0 h 7.420289 v 7.42029 h -7.420289 z m 14.840579,0 h 7.42029 v 7.42029 h -7.42029 z m 29.681162,0 h 7.42029 v 7.42029 h -7.42029 z m 14.84058,0 h 7.42029 v 7.42029 h -7.42029 z m 7.42029,0 h 7.42029 v 7.42029 h -7.42029 z m 7.42029,0 h 7.42029 v 7.42029 h -7.42029 z m 14.84058,0 h 7.42029 v 7.42029 h -7.42029 z m 22.26087,0 h 7.42029 v 7.42029 h -7.42029 z m 51.94203,0 h 7.42029 v 7.42029 h -7.42029 z m 44.52173,0 h 7.42029 v 7.42029 h -7.42029 z m 14.84058,0 h 7.42029 v 7.42029 h -7.42029 z m 14.84058,0 h 7.42029 v 7.42029 h -7.42029 z m 14.84058,0 h 7.42029 v 7.42029 h -7.42029 z m 29.68116,0 h 7.42029 v 7.42029 h -7.42029 z m 14.84058,0 h 7.42029 v 7.42029 h -7.42029 z m 7.42029,0 h 7.42029 v 7.42029 h -7.42029 z m 7.42029,0 h 7.42029 v 7.42029 h -7.42029 z m 14.84058,0 h 7.42029 v 7.42029 h -7.42029 z m 29.68116,0 h 7.42029 v 7.42029 h -7.42029 z m 22.26087,0 h 7.42029 v 7.42029 h -7.42029 z m 7.42029,0 h 7.42029 v 7.42029 h -7.42029 z m 7.42029,0 h 7.42029 v 7.42029 h -7.42029 z m 7.42029,0 h 7.42029 v 7.42029 h -7.42029 z m -430.376811,7.42029 h 7.42029 v 7.42029 h -7.42029 z m 14.84058,0 h 7.42029 v 7.42029 h -7.42029 z m 29.681159,0 h 7.42029 v 7.42029 h -7.42029 z m 44.521742,0 h 7.42029 v 7.42029 h -7.42029 z m 7.42029,0 h 7.42029 v 7.42029 h -7.42029 z m 14.84058,0 h 7.42029 v 7.42029 h -7.42029 z m 14.84058,0 h 7.42029 v 7.42029 h -7.42029 z m 14.84058,0 h 7.42029 v 7.42029 h -7.42029 z m 7.42029,0 h 7.42029 v 7.42029 h -7.42029 z m 14.84058,0 h 7.42029 v 7.42029 h -7.42029 z m 14.84058,0 h 7.42029 v 7.42029 h -7.42029 z m 7.42029,0 h 7.42029 v 7.42029 h -7.42029 z m 14.84058,0 h 7.42029 v 7.42029 h -7.42029 z m 7.42029,0 h 7.42028 v 7.42029 h -7.42028 z m 7.42028,0 h 7.42029 v 7.42029 h -7.42029 z m 29.68116,0 h 7.42029 v 7.42029 h -7.42029 z m 22.26087,0 h 7.42029 v 7.42029 h -7.42029 z m 7.42029,0 h 7.42029 v 7.42029 h -7.42029 z m 7.42029,0 h 7.42029 v 7.42029 h -7.42029 z m 7.42029,0 h 7.42029 v 7.42029 h -7.42029 z m 7.42029,0 h 7.42029 v 7.42029 h -7.42029 z m 7.42029,0 h 7.42029 v 7.42029 h -7.42029 z m 7.42029,0 h 7.42029 v 7.42029 h -7.42029 z m 22.26087,0 h 7.42029 v 7.42029 h -7.42029 z m 29.68116,0 h 7.42029 v 7.42029 h -7.42029 z m 14.84058,0 h 7.42029 v 7.42029 h -7.42029 z m 7.42029,0 h 7.42029 v 7.42029 h -7.42029 z m 7.42029,0 h 7.42029 v 7.42029 h -7.42029 z m 7.42029,0 h 7.42029 v 7.42029 h -7.42029 z m -393.275361,7.42029 h 7.42029 v 7.42029 h -7.42029 z m 14.84058,0 h 7.42029 v 7.42029 h -7.42029 z m 7.42029,0 h 7.420289 v 7.42029 h -7.420289 z m 7.420289,0 h 7.42029 v 7.42029 h -7.42029 z m 14.84058,0 h 7.420292 v 7.42029 h -7.420292 z m 37.101452,0 h 7.42029 v 7.42029 h -7.42029 z m 14.84058,0 h 7.42029 v 7.42029 h -7.42029 z m 7.42029,0 h 7.42029 v 7.42029 h -7.42029 z m 14.84058,0 h 7.42029 v 7.42029 h -7.42029 z m 7.42029,0 h 7.42029 v 7.42029 h -7.42029 z m 22.26087,0 h 7.42029 v 7.42029 h -7.42029 z m 14.84058,0 h 7.42029 v 7.42029 h -7.42029 z m 14.84058,0 h 7.42029 v 7.42029 h -7.42029 z m 7.42029,0 h 7.42029 v 7.42029 h -7.42029 z m 7.42029,0 h 7.42029 v 7.42029 h -7.42029 z m 51.94202,0 h 7.42029 v 7.42029 h -7.42029 z m 7.42029,0 h 7.42029 v 7.42029 h -7.42029 z m 29.68116,0 h 7.42029 v 7.42029 h -7.42029 z m 29.68116,0 h 7.42029 v 7.42029 h -7.42029 z m 14.84058,0 h 7.42029 v 7.42029 h -7.42029 z m 7.42029,0 h 7.42029 v 7.42029 h -7.42029 z m 7.42029,0 h 7.42029 v 7.42029 h -7.42029 z m 7.42029,0 h 7.42029 v 7.42029 h -7.42029 z m 14.84058,0 h 7.42029 v 7.42029 h -7.42029 z m 14.84058,0 h 7.42029 v 7.42029 h -7.42029 z m 22.26087,0 h 7.42029 v 7.42029 h -7.42029 z m 7.42029,0 h 7.42029 v 7.42029 h -7.42029 z m -415.536231,7.42029 h 7.42029 v 7.42029 h -7.42029 z m 7.42029,0 h 7.42029 v 7.42029 h -7.42029 z m 7.42029,0 h 7.42029 v 7.42029 h -7.42029 z m 7.42029,0 h 7.42029 v 7.42029 h -7.42029 z m 37.101451,0 h 7.42029 v 7.42029 h -7.42029 z m 14.84058,0 h 7.42029 v 7.42029 h -7.42029 z m 7.42029,0 h 7.42029 v 7.42029 h -7.42029 z m 7.42029,0 h 7.42029 v 7.42029 h -7.42029 z m 7.42029,0 h 7.42029 v 7.42029 h -7.42029 z m 59.36232,0 h 7.42029 v 7.42029 h -7.42029 z m 7.42029,0 h 7.42029 v 7.42029 h -7.42029 z m 14.84058,0 h 7.42029 v 7.42029 h -7.42029 z m 22.26087,0 h 7.42029 v 7.42029 h -7.42029 z m 7.42029,0 h 7.42028 v 7.42029 h -7.42028 z m 44.52173,0 h 7.42029 v 7.42029 h -7.42029 z m 7.42029,0 h 7.42029 v 7.42029 h -7.42029 z m 29.68116,0 h 7.42029 v 7.42029 h -7.42029 z m 7.42029,0 h 7.42029 v 7.42029 h -7.42029 z m 37.10145,0 h 7.42029 v 7.42029 h -7.42029 z m 14.84058,0 h 7.42029 v 7.42029 h -7.42029 z m 37.10145,0 h 7.42029 v 7.42029 h -7.42029 z m 7.42029,0 h 7.42029 v 7.42029 h -7.42029 z m 7.42029,0 h 7.42029 v 7.42029 h -7.42029 z m 7.42029,0 h 7.42029 v 7.42029 h -7.42029 z m 7.42029,0 h 7.42029 v 7.42029 h -7.42029 z m 7.42029,0 h 7.42029 v 7.42029 h -7.42029 z m 7.42029,0 h 7.42029 v 7.42029 h -7.42029 z m -445.217391,7.42029 h 7.42029 v 7.42029 h -7.42029 z m 14.84058,0 h 7.42029 v 7.42029 h -7.42029 z m 7.42029,0 h 7.42029 v 7.42029 h -7.42029 z m 7.42029,0 h 7.42029 v 7.42029 h -7.42029 z m 14.84058,0 h 7.420289 v 7.42029 h -7.420289 z m 7.420289,0 h 7.42029 v 7.42029 h -7.42029 z m 22.260872,0 h 7.42029 v 7.42029 h -7.42029 z m 7.42029,0 h 7.42029 v 7.42029 h -7.42029 z m 44.52174,0 h 7.42029 v 7.42029 h -7.42029 z m 14.84058,0 h 7.42029 v 7.42029 h -7.42029 z m 7.42029,0 h 7.42029 v 7.42029 h -7.42029 z m 22.26087,0 h 7.42029 v 7.42029 h -7.42029 z m 7.42029,0 h 7.42029 v 7.42029 h -7.42029 z m 7.42029,0 h 7.42029 v 7.42029 h -7.42029 z m 7.42029,0 h 7.42029 v 7.42029 h -7.42029 z m 7.42029,0 h 7.42029 v 7.42029 h -7.42029 z m 14.84058,0 h 7.42029 v 7.42029 h -7.42029 z m 7.42029,0 h 7.42028 v 7.42029 h -7.42028 z m 7.42028,0 h 7.42029 v 7.42029 h -7.42029 z m 14.84058,0 h 7.42029 v 7.42029 h -7.42029 z m 7.42029,0 h 7.42029 v 7.42029 h -7.42029 z m 14.84058,0 h 7.42029 v 7.42029 h -7.42029 z m 7.42029,0 h 7.42029 v 7.42029 h -7.42029 z m 7.42029,0 h 7.42029 v 7.42029 h -7.42029 z m 7.42029,0 h 7.42029 v 7.42029 h -7.42029 z m 7.42029,0 h 7.42029 v 7.42029 h -7.42029 z m 7.42029,0 h 7.42029 v 7.42029 h -7.42029 z m 14.84058,0 h 7.42029 v 7.42029 h -7.42029 z m 29.68116,0 h 7.42029 v 7.42029 h -7.42029 z m 22.26087,0 h 7.42029 v 7.42029 h -7.42029 z m 7.42029,0 h 7.42029 v 7.42029 h -7.42029 z m 44.52174,0 h 7.42029 v 7.42029 h -7.42029 z m 14.84058,0 h 7.42029 v 7.42029 h -7.42029 z m 7.42029,0 h 7.42029 v 7.42029 h -7.42029 z m -445.217391,7.42029 h 7.42029 v 7.42029 h -7.42029 z m 66.782609,0 h 7.420292 v 7.42029 h -7.420292 z m 7.420292,0 h 7.42029 v 7.42029 h -7.42029 z m 7.42029,0 h 7.42029 v 7.42029 h -7.42029 z m 7.42029,0 h 7.42029 v 7.42029 h -7.42029 z m 7.42029,0 h 7.42029 v 7.42029 h -7.42029 z m 7.42029,0 h 7.42029 v 7.42029 h -7.42029 z m 29.68116,0 h 7.42029 v 7.42029 h -7.42029 z m 7.42029,0 h 7.42029 v 7.42029 h -7.42029 z m 7.42029,0 h 7.42029 v 7.42029 h -7.42029 z m 7.42029,0 h 7.42029 v 7.42029 h -7.42029 z m 22.26087,0 h 7.42029 v 7.42029 h -7.42029 z m 37.10145,0 h 7.42029 v 7.42029 h -7.42029 z m 7.42029,0 h 7.42028 v 7.42029 h -7.42028 z m 14.84057,0 h 7.42029 v 7.42029 h -7.42029 z m 14.84058,0 h 7.42029 v 7.42029 h -7.42029 z m 7.42029,0 h 7.42029 v 7.42029 h -7.42029 z m 14.84058,0 h 7.42029 v 7.42029 h -7.42029 z m 14.84058,0 h 7.42029 v 7.42029 h -7.42029 z m 7.42029,0 h 7.42029 v 7.42029 h -7.42029 z m 7.42029,0 h 7.42029 v 7.42029 h -7.42029 z m 7.42029,0 h 7.42029 v 7.42029 h -7.42029 z m 7.42029,0 h 7.42029 v 7.42029 h -7.42029 z m 7.42029,0 h 7.42029 v 7.42029 h -7.42029 z m 7.42029,0 h 7.42029 v 7.42029 h -7.42029 z m 29.68116,0 h 7.42029 v 7.42029 h -7.42029 z m 7.42029,0 h 7.42029 v 7.42029 h -7.42029 z m 22.26087,0 h 7.42029 v 7.42029 h -7.42029 z m 14.84058,0 h 7.42029 v 7.42029 h -7.42029 z m 7.42029,0 h 7.42029 v 7.42029 h -7.42029 z m 22.26087,0 h 7.42029 v 7.42029 h -7.42029 z m 7.42029,0 h 7.42029 v 7.42029 h -7.42029 z M 29.681159,222.6087 h 7.42029 v 7.42029 h -7.42029 z m 7.42029,0 h 7.42029 v 7.42029 h -7.42029 z m 14.84058,0 h 7.42029 v 7.42029 h -7.42029 z m 7.42029,0 h 7.42029 v 7.42029 h -7.42029 z m 14.84058,0 h 7.420289 v 7.42029 h -7.420289 z m 7.420289,0 h 7.42029 v 7.42029 h -7.42029 z m 7.42029,0 h 7.42029 v 7.42029 h -7.42029 z m 7.42029,0 h 7.420292 v 7.42029 h -7.420292 z m 29.681162,0 h 7.42029 v 7.42029 h -7.42029 z m 7.42029,0 h 7.42029 v 7.42029 h -7.42029 z m 7.42029,0 h 7.42029 v 7.42029 h -7.42029 z m 7.42029,0 h 7.42029 v 7.42029 h -7.42029 z m 7.42029,0 h 7.42029 v 7.42029 h -7.42029 z m 7.42029,0 h 7.42029 v 7.42029 h -7.42029 z m 14.84058,0 h 7.42029 v 7.42029 h -7.42029 z m 22.26087,0 h 7.42029 v 7.42029 h -7.42029 z m 14.84058,0 h 7.42029 v 7.42029 h -7.42029 z m 74.20289,0 h 7.42029 v 7.42029 h -7.42029 z m 7.42029,0 h 7.42029 v 7.42029 h -7.42029 z m 7.42029,0 h 7.42029 v 7.42029 h -7.42029 z m 37.10145,0 h 7.42029 v 7.42029 h -7.42029 z m 7.42029,0 h 7.42029 v 7.42029 h -7.42029 z m 29.68116,0 h 7.42029 v 7.42029 h -7.42029 z m 7.42029,0 h 7.42029 v 7.42029 h -7.42029 z m 22.26087,0 h 7.42029 v 7.42029 h -7.42029 z m 7.42029,0 h 7.42029 v 7.42029 h -7.42029 z m 7.42029,0 h 7.42029 v 7.42029 h -7.42029 z m 14.84058,0 h 7.42029 v 7.42029 h -7.42029 z m 14.84058,0 h 7.42029 v 7.42029 h -7.42029 z m 22.26087,0 h 7.42029 v 7.42029 h -7.42029 z m -422.956521,7.42029 h 7.42029 v 7.42029 h -7.42029 z m 7.42029,0 h 7.42029 v 7.42029 h -7.42029 z m 7.42029,0 h 7.42029 v 7.42029 h -7.42029 z m 14.840579,0 h 7.42029 v 7.42029 h -7.42029 z m 7.42029,0 h 7.42029 v 7.42029 h -7.42029 z m 37.101452,0 h 7.42029 v 7.42029 h -7.42029 z m 14.84058,0 h 7.42029 v 7.42029 h -7.42029 z m 22.26087,0 h 7.42029 v 7.42029 h -7.42029 z m 7.42029,0 h 7.42029 v 7.42029 h -7.42029 z m 14.84058,0 h 7.42029 v 7.42029 h -7.42029 z m 7.42029,0 h 7.42029 v 7.42029 h -7.42029 z m 7.42029,0 h 7.42029 v 7.42029 h -7.42029 z m 7.42029,0 h 7.42029 v 7.42029 h -7.42029 z m 22.26087,0 h 7.42029 v 7.42029 h -7.42029 z m 7.42029,0 h 7.42029 v 7.42029 h -7.42029 z m 7.42029,0 h 7.42029 v 7.42029 h -7.42029 z m 14.84057,0 h 7.42029 v 7.42029 h -7.42029 z m 7.42029,0 h 7.42029 v 7.42029 h -7.42029 z m 22.26087,0 h 7.42029 v 7.42029 h -7.42029 z m 7.42029,0 h 7.42029 v 7.42029 h -7.42029 z m 7.42029,0 h 7.42029 v 7.42029 h -7.42029 z m 29.68116,0 h 7.42029 v 7.42029 h -7.42029 z m 7.42029,0 h 7.42029 v 7.42029 h -7.42029 z m 7.42029,0 h 7.42029 v 7.42029 h -7.42029 z m 7.42029,0 h 7.42029 v 7.42029 h -7.42029 z m 22.26087,0 h 7.42029 v 7.42029 h -7.42029 z m 14.84058,0 h 7.42029 v 7.42029 h -7.42029 z m 29.68116,0 h 7.42029 v 7.42029 h -7.42029 z m 7.42029,0 h 7.42029 v 7.42029 h -7.42029 z m 7.42029,0 h 7.42029 v 7.42029 h -7.42029 z m 22.26087,0 h 7.42029 v 7.42029 h -7.42029 z m 14.84058,0 h 7.42029 v 7.42029 h -7.42029 z m -445.217391,7.42029 h 7.42029 v 7.42029 h -7.42029 z m 14.84058,0 h 7.42029 v 7.42029 h -7.42029 z m 7.42029,0 h 7.42029 v 7.42029 h -7.42029 z m 7.42029,0 h 7.42029 v 7.42029 h -7.42029 z m 7.42029,0 h 7.42029 v 7.42029 h -7.42029 z m 7.42029,0 h 7.420289 v 7.42029 h -7.420289 z m 7.420289,0 h 7.42029 v 7.42029 h -7.42029 z m 7.42029,0 h 7.42029 v 7.42029 h -7.42029 z m 22.260872,0 h 7.42029 v 7.42029 h -7.42029 z m 14.84058,0 h 7.42029 v 7.42029 h -7.42029 z m 7.42029,0 h 7.42029 v 7.42029 h -7.42029 z m 14.84058,0 h 7.42029 v 7.42029 h -7.42029 z m 22.26087,0 h 7.42029 v 7.42029 h -7.42029 z m 7.42029,0 h 7.42029 v 7.42029 h -7.42029 z m 22.26087,0 h 7.42029 v 7.42029 h -7.42029 z m 7.42029,0 h 7.42029 v 7.42029 h -7.42029 z m 14.84058,0 h 7.42029 v 7.42029 h -7.42029 z m 14.84058,0 h 7.42029 v 7.42029 h -7.42029 z m 7.42029,0 h 7.42029 v 7.42029 h -7.42029 z m 7.42029,0 h 7.42028 v 7.42029 h -7.42028 z m 7.42028,0 h 7.42029 v 7.42029 h -7.42029 z m 7.42029,0 h 7.42029 v 7.42029 h -7.42029 z m 7.42029,0 h 7.42029 v 7.42029 h -7.42029 z m 7.42029,0 h 7.42029 v 7.42029 h -7.42029 z m 7.42029,0 h 7.42029 v 7.42029 h -7.42029 z m 7.42029,0 h 7.42029 v 7.42029 h -7.42029 z m 14.84058,0 h 7.42029 v 7.42029 h -7.42029 z m 37.10145,0 h 7.42029 v 7.42029 h -7.42029 z m 14.84058,0 h 7.42029 v 7.42029 h -7.42029 z m 7.42029,0 h 7.42029 v 7.42029 h -7.42029 z m 14.84058,0 h 7.42029 v 7.42029 h -7.42029 z m 7.42029,0 h 7.42029 v 7.42029 h -7.42029 z m 7.42029,0 h 7.42029 v 7.42029 h -7.42029 z m 7.42029,0 h 7.42029 v 7.42029 h -7.42029 z m 7.42029,0 h 7.42029 v 7.42029 h -7.42029 z m 7.42029,0 h 7.42029 v 7.42029 h -7.42029 z m 7.42029,0 h 7.42029 v 7.42029 h -7.42029 z m 7.42029,0 h 7.42029 v 7.42029 h -7.42029 z m 7.42029,0 h 7.42029 v 7.42029 h -7.42029 z m 7.42029,0 h 7.42029 v 7.42029 h -7.42029 z m 7.42029,0 h 7.42029 v 7.42029 h -7.42029 z m 14.84058,0 h 7.42029 v 7.42029 h -7.42029 z m -445.217391,7.42029 h 7.42029 v 7.42029 h -7.42029 z m 7.42029,0 h 7.42029 v 7.42029 h -7.42029 z m 7.42029,0 h 7.42029 v 7.42029 h -7.42029 z m 7.42029,0 h 7.42029 v 7.42029 h -7.42029 z m 7.42029,0 h 7.42029 v 7.42029 h -7.42029 z m 29.681159,0 h 7.42029 v 7.42029 h -7.42029 z m 7.42029,0 h 7.420292 v 7.42029 h -7.420292 z m 14.840582,0 h 7.42029 v 7.42029 h -7.42029 z m 7.42029,0 h 7.42029 v 7.42029 h -7.42029 z m 37.10145,0 h 7.42029 v 7.42029 h -7.42029 z m 29.68116,0 h 7.42029 v 7.42029 h -7.42029 z m 7.42029,0 h 7.42029 v 7.42029 h -7.42029 z m 7.42029,0 h 7.42029 v 7.42029 h -7.42029 z m 7.42029,0 h 7.42029 v 7.42029 h -7.42029 z m 7.42029,0 h 7.42029 v 7.42029 h -7.42029 z m 22.26087,0 h 7.42029 v 7.42029 h -7.42029 z m 29.68115,0 h 7.42029 v 7.42029 h -7.42029 z m 14.84058,0 h 7.42029 v 7.42029 h -7.42029 z m 7.42029,0 h 7.42029 v 7.42029 h -7.42029 z m 14.84058,0 h 7.42029 v 7.42029 h -7.42029 z m 7.42029,0 h 7.42029 v 7.42029 h -7.42029 z m 7.42029,0 h 7.42029 v 7.42029 h -7.42029 z m 7.42029,0 h 7.42029 v 7.42029 h -7.42029 z m 22.26087,0 h 7.42029 v 7.42029 h -7.42029 z m 7.42029,0 h 7.42029 v 7.42029 h -7.42029 z m 7.42029,0 h 7.42029 v 7.42029 h -7.42029 z m 14.84058,0 h 7.42029 v 7.42029 h -7.42029 z m 37.10145,0 h 7.42029 v 7.42029 h -7.42029 z m 29.68116,0 h 7.42029 v 7.42029 h -7.42029 z m 7.42029,0 h 7.42029 v 7.42029 h -7.42029 z m 14.84058,0 h 7.42029 v 7.42029 h -7.42029 z m 7.42029,0 h 7.42029 v 7.42029 h -7.42029 z m -445.217391,7.42029 h 7.42029 v 7.42028 h -7.42029 z m 7.42029,0 h 7.42029 v 7.42028 h -7.42029 z m 7.42029,0 h 7.42029 v 7.42028 h -7.42029 z m 7.42029,0 h 7.42029 v 7.42028 h -7.42029 z m 7.42029,0 h 7.42029 v 7.42028 h -7.42029 z m 14.84058,0 h 7.420289 v 7.42028 h -7.420289 z m 14.840579,0 h 7.42029 v 7.42028 h -7.42029 z m 7.42029,0 h 7.420292 v 7.42028 h -7.420292 z m 14.840582,0 h 7.42029 v 7.42028 h -7.42029 z m 14.84058,0 h 7.42029 v 7.42028 h -7.42029 z m 22.26087,0 h 7.42029 v 7.42028 h -7.42029 z m 7.42029,0 h 7.42029 v 7.42028 h -7.42029 z m 7.42029,0 h 7.42029 v 7.42028 h -7.42029 z m 7.42029,0 h 7.42029 v 7.42028 h -7.42029 z m 14.84058,0 h 7.42029 v 7.42028 h -7.42029 z m 22.26087,0 h 7.42029 v 7.42028 h -7.42029 z m 29.68116,0 h 7.42029 v 7.42028 h -7.42029 z m 14.84058,0 h 7.42028 v 7.42028 h -7.42028 z m 14.84057,0 h 7.42029 v 7.42028 h -7.42029 z m 14.84058,0 h 7.42029 v 7.42028 h -7.42029 z m 7.42029,0 h 7.42029 v 7.42028 h -7.42029 z m 7.42029,0 h 7.42029 v 7.42028 h -7.42029 z m 37.10145,0 h 7.42029 v 7.42028 h -7.42029 z m 7.42029,0 h 7.42029 v 7.42028 h -7.42029 z m 22.26087,0 h 7.42029 v 7.42028 h -7.42029 z m 7.42029,0 h 7.42029 v 7.42028 h -7.42029 z m 14.84058,0 h 7.42029 v 7.42028 h -7.42029 z m 14.84058,0 h 7.42029 v 7.42028 h -7.42029 z m 7.42029,0 h 7.42029 v 7.42028 h -7.42029 z m 7.42029,0 h 7.42029 v 7.42028 h -7.42029 z m 14.84058,0 h 7.42029 v 7.42028 h -7.42029 z m 14.84058,0 h 7.42029 v 7.42028 h -7.42029 z m 7.42029,0 h 7.42029 v 7.42028 h -7.42029 z m 7.42029,0 h 7.42029 v 7.42028 h -7.42029 z m 7.42029,0 h 7.42029 v 7.42028 h -7.42029 z m 7.42029,0 h 7.42029 v 7.42028 h -7.42029 z m -445.217391,7.42028 h 7.42029 v 7.42029 h -7.42029 z m 22.26087,0 h 7.42029 v 7.42029 h -7.42029 z m 7.42029,0 h 7.42029 v 7.42029 h -7.42029 z m 29.681159,0 h 7.42029 v 7.42029 h -7.42029 z m 14.840582,0 h 7.42029 v 7.42029 h -7.42029 z m 14.84058,0 h 7.42029 v 7.42029 h -7.42029 z m 7.42029,0 h 7.42029 v 7.42029 h -7.42029 z m 14.84058,0 h 7.42029 v 7.42029 h -7.42029 z m 22.26087,0 h 7.42029 v 7.42029 h -7.42029 z m 7.42029,0 h 7.42029 v 7.42029 h -7.42029 z m 14.84058,0 h 7.42029 v 7.42029 h -7.42029 z m 7.42029,0 h 7.42029 v 7.42029 h -7.42029 z m 7.42029,0 h 7.42029 v 7.42029 h -7.42029 z m 7.42029,0 h 7.42029 v 7.42029 h -7.42029 z m 7.42029,0 h 7.42029 v 7.42029 h -7.42029 z m 7.42029,0 h 7.42029 v 7.42029 h -7.42029 z m 7.42029,0 h 7.42029 v 7.42029 h -7.42029 z m 7.42029,0 h 7.42029 v 7.42029 h -7.42029 z m 29.68115,0 h 7.42029 v 7.42029 h -7.42029 z m 22.26087,0 h 7.42029 v 7.42029 h -7.42029 z m 29.68116,0 h 7.42029 v 7.42029 h -7.42029 z m 7.42029,0 h 7.42029 v 7.42029 h -7.42029 z m 7.42029,0 h 7.42029 v 7.42029 h -7.42029 z m 7.42029,0 h 7.42029 v 7.42029 h -7.42029 z m 14.84058,0 h 7.42029 v 7.42029 h -7.42029 z m 7.42029,0 h 7.42029 v 7.42029 h -7.42029 z m 14.84058,0 h 7.42029 v 7.42029 h -7.42029 z m 29.68116,0 h 7.42029 v 7.42029 h -7.42029 z m 7.42029,0 h 7.42029 v 7.42029 h -7.42029 z m 29.68116,0 h 7.42029 v 7.42029 h -7.42029 z m -415.536231,7.42029 h 7.42029 v 7.42029 h -7.42029 z m 7.42029,0 h 7.42029 v 7.42029 h -7.42029 z m 14.84058,0 h 7.42029 v 7.42029 h -7.42029 z m 7.42029,0 h 7.42029 v 7.42029 h -7.42029 z m 7.42029,0 h 7.42029 v 7.42029 h -7.42029 z m 7.42029,0 h 7.420289 v 7.42029 h -7.420289 z m 7.420289,0 h 7.42029 v 7.42029 h -7.42029 z m 7.42029,0 h 7.42029 v 7.42029 h -7.42029 z m 14.840582,0 h 7.42029 v 7.42029 h -7.42029 z m 7.42029,0 h 7.42029 v 7.42029 h -7.42029 z m 7.42029,0 h 7.42029 v 7.42029 h -7.42029 z m 7.42029,0 h 7.42029 v 7.42029 h -7.42029 z m 7.42029,0 h 7.42029 v 7.42029 h -7.42029 z m 7.42029,0 h 7.42029 v 7.42029 h -7.42029 z m 51.94203,0 h 7.42029 v 7.42029 h -7.42029 z m 14.84058,0 h 7.42029 v 7.42029 h -7.42029 z m 7.42029,0 h 7.42029 v 7.42029 h -7.42029 z m 22.26087,0 h 7.42029 v 7.42029 h -7.42029 z m 7.42029,0 h 7.42029 v 7.42029 h -7.42029 z m 7.42029,0 h 7.42028 v 7.42029 h -7.42028 z m 7.42028,0 h 7.42029 v 7.42029 h -7.42029 z m 7.42029,0 h 7.42029 v 7.42029 h -7.42029 z m 29.68116,0 h 7.42029 v 7.42029 h -7.42029 z m 7.42029,0 h 7.42029 v 7.42029 h -7.42029 z m 7.42029,0 h 7.42029 v 7.42029 h -7.42029 z m 22.26087,0 h 7.42029 v 7.42029 h -7.42029 z m 29.68116,0 h 7.42029 v 7.42029 h -7.42029 z m 7.42029,0 h 7.42029 v 7.42029 h -7.42029 z m 14.84058,0 h 7.42029 v 7.42029 h -7.42029 z m 7.42029,0 h 7.42029 v 7.42029 h -7.42029 z m 7.42029,0 h 7.42029 v 7.42029 h -7.42029 z m 14.84058,0 h 7.42029 v 7.42029 h -7.42029 z m 7.42029,0 h 7.42029 v 7.42029 h -7.42029 z m 7.42029,0 h 7.42029 v 7.42029 h -7.42029 z m 7.42029,0 h 7.42029 v 7.42029 h -7.42029 z m 7.42029,0 h 7.42029 v 7.42029 h -7.42029 z m 29.68116,0 h 7.42029 v 7.42029 h -7.42029 z m -437.797101,7.42029 h 7.42029 v 7.42029 h -7.42029 z m 22.26087,0 h 7.42029 v 7.42029 h -7.42029 z m 29.681159,0 h 7.42029 v 7.42029 h -7.42029 z m 7.42029,0 h 7.420292 v 7.42029 h -7.420292 z m 37.101452,0 h 7.42029 v 7.42029 h -7.42029 z m 14.84058,0 h 7.42029 v 7.42029 h -7.42029 z m 14.84058,0 h 7.42029 v 7.42029 h -7.42029 z m 7.42029,0 h 7.42029 v 7.42029 h -7.42029 z m 14.84058,0 h 7.42029 v 7.42029 h -7.42029 z m 7.42029,0 h 7.42029 v 7.42029 h -7.42029 z m 7.42029,0 h 7.42029 v 7.42029 h -7.42029 z m 14.84058,0 h 7.42029 v 7.42029 h -7.42029 z m 7.42029,0 h 7.42029 v 7.42029 h -7.42029 z m 14.84058,0 h 7.42029 v 7.42029 h -7.42029 z m 22.26086,0 h 7.42029 v 7.42029 h -7.42029 z m 29.68116,0 h 7.42029 v 7.42029 h -7.42029 z m 37.10145,0 h 7.42029 v 7.42029 h -7.42029 z m 22.26087,0 h 7.42029 v 7.42029 h -7.42029 z m 7.42029,0 h 7.42029 v 7.42029 h -7.42029 z m 14.84058,0 h 7.42029 v 7.42029 h -7.42029 z m 44.52174,0 h 7.42029 v 7.42029 h -7.42029 z m 7.42029,0 h 7.42029 v 7.42029 h -7.42029 z m 7.42029,0 h 7.42029 v 7.42029 h -7.42029 z m 7.42029,0 h 7.42029 v 7.42029 h -7.42029 z m 29.68116,0 h 7.42029 v 7.42029 h -7.42029 z m -437.797101,7.42029 h 7.42029 v 7.42029 h -7.42029 z m 29.68116,0 h 7.42029 v 7.42029 h -7.42029 z m 14.84058,0 h 7.420289 v 7.42029 h -7.420289 z m 14.840579,0 h 7.42029 v 7.42029 h -7.42029 z m 29.681162,0 h 7.42029 v 7.42029 h -7.42029 z m 14.84058,0 h 7.42029 v 7.42029 h -7.42029 z m 7.42029,0 h 7.42029 v 7.42029 h -7.42029 z m 7.42029,0 h 7.42029 v 7.42029 h -7.42029 z m 7.42029,0 h 7.42029 v 7.42029 h -7.42029 z m 7.42029,0 h 7.42029 v 7.42029 h -7.42029 z m 7.42029,0 h 7.42029 v 7.42029 h -7.42029 z m 7.42029,0 h 7.42029 v 7.42029 h -7.42029 z m 37.10145,0 h 7.42029 v 7.42029 h -7.42029 z m 22.26087,0 h 7.42029 v 7.42029 h -7.42029 z m 7.42029,0 h 7.42029 v 7.42029 h -7.42029 z m 7.42029,0 h 7.42028 v 7.42029 h -7.42028 z m 14.84057,0 h 7.42029 v 7.42029 h -7.42029 z m 14.84058,0 h 7.42029 v 7.42029 h -7.42029 z m 14.84058,0 h 7.42029 v 7.42029 h -7.42029 z m 14.84058,0 h 7.42029 v 7.42029 h -7.42029 z m 22.26087,0 h 7.42029 v 7.42029 h -7.42029 z m 7.42029,0 h 7.42029 v 7.42029 h -7.42029 z m 29.68116,0 h 7.42029 v 7.42029 h -7.42029 z m 7.42029,0 h 7.42029 v 7.42029 h -7.42029 z m 7.42029,0 h 7.42029 v 7.42029 h -7.42029 z m 7.42029,0 h 7.42029 v 7.42029 h -7.42029 z m 7.42029,0 h 7.42029 v 7.42029 h -7.42029 z m 7.42029,0 h 7.42029 v 7.42029 h -7.42029 z m 7.42029,0 h 7.42029 v 7.42029 h -7.42029 z m 7.42029,0 h 7.42029 v 7.42029 h -7.42029 z m 7.42029,0 h 7.42029 v 7.42029 h -7.42029 z m 14.84058,0 h 7.42029 v 7.42029 h -7.42029 z m 14.84058,0 h 7.42029 v 7.42029 h -7.42029 z m 14.84058,0 h 7.42029 v 7.42029 h -7.42029 z M 29.681159,289.3913 h 7.42029 v 7.42029 h -7.42029 z m 7.42029,0 h 7.42029 v 7.42029 h -7.42029 z m 7.42029,0 h 7.42029 v 7.42029 h -7.42029 z m 7.42029,0 h 7.42029 v 7.42029 h -7.42029 z m 7.42029,0 h 7.42029 v 7.42029 h -7.42029 z m 29.681159,0 h 7.42029 v 7.42029 h -7.42029 z m 29.681162,0 h 7.42029 v 7.42029 h -7.42029 z m 7.42029,0 h 7.42029 v 7.42029 h -7.42029 z m 22.26087,0 h 7.42029 v 7.42029 h -7.42029 z m 7.42029,0 h 7.42029 v 7.42029 h -7.42029 z m 29.68116,0 h 7.42029 v 7.42029 h -7.42029 z m 14.84058,0 h 7.42029 v 7.42029 h -7.42029 z m 7.42029,0 h 7.42029 v 7.42029 h -7.42029 z m 7.42029,0 h 7.42029 v 7.42029 h -7.42029 z m 14.84058,0 h 7.42029 v 7.42029 h -7.42029 z m 7.42029,0 h 7.42029 v 7.42029 h -7.42029 z m 22.26086,0 h 7.42029 v 7.42029 h -7.42029 z m 44.52174,0 h 7.42029 v 7.42029 h -7.42029 z m 14.84058,0 h 7.42029 v 7.42029 h -7.42029 z m 7.42029,0 h 7.42029 v 7.42029 h -7.42029 z m 7.42029,0 h 7.42029 v 7.42029 h -7.42029 z m 7.42029,0 h 7.42029 v 7.42029 h -7.42029 z m 22.26087,0 h 7.42029 v 7.42029 h -7.42029 z m 14.84058,0 h 7.42029 v 7.42029 h -7.42029 z m 14.84058,0 h 7.42029 v 7.42029 h -7.42029 z m 14.84058,0 h 7.42029 v 7.42029 h -7.42029 z m 14.84058,0 h 7.42029 v 7.42029 h -7.42029 z m 29.68116,0 h 7.42029 v 7.42029 h -7.42029 z m 14.84058,0 h 7.42029 v 7.42029 h -7.42029 z m -430.376811,7.42029 h 7.42029 v 7.42029 h -7.42029 z m 22.26087,0 h 7.42029 v 7.42029 h -7.42029 z m 14.84058,0 h 7.420289 v 7.42029 h -7.420289 z m 7.420289,0 h 7.42029 v 7.42029 h -7.42029 z m 14.84058,0 h 7.420292 v 7.42029 h -7.420292 z m 14.840582,0 h 7.42029 v 7.42029 h -7.42029 z m 44.52174,0 h 7.42029 v 7.42029 h -7.42029 z m 7.42029,0 h 7.42029 v 7.42029 h -7.42029 z m 14.84058,0 h 7.42029 v 7.42029 h -7.42029 z m 22.26087,0 h 7.42029 v 7.42029 h -7.42029 z m 7.42029,0 h 7.42029 v 7.42029 h -7.42029 z m 14.84058,0 h 7.42029 v 7.42029 h -7.42029 z m 7.42029,0 h 7.42029 v 7.42029 h -7.42029 z m 14.84058,0 h 7.42029 v 7.42029 h -7.42029 z m 14.84057,0 h 7.42029 v 7.42029 h -7.42029 z m 22.26087,0 h 7.42029 v 7.42029 h -7.42029 z m 7.42029,0 h 7.42029 v 7.42029 h -7.42029 z m 7.42029,0 h 7.42029 v 7.42029 h -7.42029 z m 14.84058,0 h 7.42029 v 7.42029 h -7.42029 z m 7.42029,0 h 7.42029 v 7.42029 h -7.42029 z m 7.42029,0 h 7.42029 v 7.42029 h -7.42029 z m 44.52174,0 h 7.42029 v 7.42029 h -7.42029 z m 14.84058,0 h 7.42029 v 7.42029 h -7.42029 z m 14.84058,0 h 7.42029 v 7.42029 h -7.42029 z m 29.68116,0 h 7.42029 v 7.42029 h -7.42029 z m 7.42029,0 h 7.42029 v 7.42029 h -7.42029 z m 22.26087,0 h 7.42029 v 7.42029 h -7.42029 z m 14.84058,0 h 7.42029 v 7.42029 h -7.42029 z m -422.956521,7.42029 h 7.42029 v 7.42029 h -7.42029 z m 7.42029,0 h 7.42029 v 7.42029 h -7.42029 z m 7.42029,0 h 7.42029 v 7.42029 h -7.42029 z m 14.840579,0 h 7.42029 v 7.42029 h -7.42029 z m 14.84058,0 h 7.420292 v 7.42029 h -7.420292 z m 22.260872,0 h 7.42029 v 7.42029 h -7.42029 z m 7.42029,0 h 7.42029 v 7.42029 h -7.42029 z m 29.68116,0 h 7.42029 v 7.42029 h -7.42029 z m 7.42029,0 h 7.42029 v 7.42029 h -7.42029 z m 7.42029,0 h 7.42029 v 7.42029 h -7.42029 z m 14.84058,0 h 7.42029 v 7.42029 h -7.42029 z m 14.84058,0 h 7.42029 v 7.42029 h -7.42029 z m 7.42029,0 h 7.42029 v 7.42029 h -7.42029 z m 14.84058,0 h 7.42029 v 7.42029 h -7.42029 z m 22.26087,0 h 7.42029 v 7.42029 h -7.42029 z m 14.84057,0 h 7.42029 v 7.42029 h -7.42029 z m 37.10145,0 h 7.42029 v 7.42029 h -7.42029 z m 7.42029,0 h 7.42029 v 7.42029 h -7.42029 z m 7.42029,0 h 7.42029 v 7.42029 h -7.42029 z m 7.42029,0 h 7.42029 v 7.42029 h -7.42029 z m 7.42029,0 h 7.42029 v 7.42029 h -7.42029 z m 7.42029,0 h 7.42029 v 7.42029 h -7.42029 z m 14.84058,0 h 7.42029 v 7.42029 h -7.42029 z m 7.42029,0 h 7.42029 v 7.42029 h -7.42029 z m 7.42029,0 h 7.42029 v 7.42029 h -7.42029 z m 51.94203,0 h 7.42029 v 7.42029 h -7.42029 z m 51.94203,0 h 7.42029 v 7.42029 h -7.42029 z m -437.797101,7.42029 h 7.42029 v 7.42029 h -7.42029 z m 7.42029,0 h 7.42029 v 7.42029 h -7.42029 z m 7.42029,0 h 7.42029 v 7.42029 h -7.42029 z m 7.42029,0 h 7.42029 v 7.42029 h -7.42029 z m 7.42029,0 h 7.42029 v 7.42029 h -7.42029 z m 14.84058,0 h 7.420289 v 7.42029 h -7.420289 z m 7.420289,0 h 7.42029 v 7.42029 h -7.42029 z m 14.84058,0 h 7.420292 v 7.42029 h -7.420292 z m 7.420292,0 h 7.42029 v 7.42029 h -7.42029 z m 14.84058,0 h 7.42029 v 7.42029 h -7.42029 z m 22.26087,0 h 7.42029 v 7.42029 h -7.42029 z m 7.42029,0 h 7.42029 v 7.42029 h -7.42029 z m 14.84058,0 h 7.42029 v 7.42029 h -7.42029 z m 22.26087,0 h 7.42029 v 7.42029 h -7.42029 z m 14.84058,0 h 7.42029 v 7.42029 h -7.42029 z m 44.52174,0 h 7.42029 v 7.42029 h -7.42029 z m 7.42029,0 h 7.42028 v 7.42029 h -7.42028 z m 14.84057,0 h 7.42029 v 7.42029 h -7.42029 z m 14.84058,0 h 7.42029 v 7.42029 h -7.42029 z m 7.42029,0 h 7.42029 v 7.42029 h -7.42029 z m 7.42029,0 h 7.42029 v 7.42029 h -7.42029 z m 7.42029,0 h 7.42029 v 7.42029 h -7.42029 z m 29.68116,0 h 7.42029 v 7.42029 h -7.42029 z m 7.42029,0 h 7.42029 v 7.42029 h -7.42029 z m 7.42029,0 h 7.42029 v 7.42029 h -7.42029 z m 14.84058,0 h 7.42029 v 7.42029 h -7.42029 z m 14.84058,0 h 7.42029 v 7.42029 h -7.42029 z m 7.42029,0 h 7.42029 v 7.42029 h -7.42029 z m 7.42029,0 h 7.42029 v 7.42029 h -7.42029 z m 7.42029,0 h 7.42029 v 7.42029 h -7.42029 z m 7.42029,0 h 7.42029 v 7.42029 h -7.42029 z m 7.42029,0 h 7.42029 v 7.42029 h -7.42029 z m 7.42029,0 h 7.42029 v 7.42029 h -7.42029 z m 7.42029,0 h 7.42029 v 7.42029 h -7.42029 z m 7.42029,0 h 7.42029 v 7.42029 h -7.42029 z m 7.42029,0 h 7.42029 v 7.42029 h -7.42029 z m 14.84058,0 h 7.42029 v 7.42029 h -7.42029 z m 7.42029,0 h 7.42029 v 7.42029 h -7.42029 z m 7.42029,0 h 7.42029 v 7.42029 h -7.42029 z m -430.376811,7.42029 h 7.42029 v 7.42029 h -7.42029 z m 14.84058,0 h 7.42029 v 7.42029 h -7.42029 z m 7.42029,0 h 7.42029 v 7.42029 h -7.42029 z m 22.260869,0 h 7.42029 v 7.42029 h -7.42029 z m 7.42029,0 h 7.420292 v 7.42029 h -7.420292 z m 44.521742,0 h 7.42029 v 7.42029 h -7.42029 z m 14.84058,0 h 7.42029 v 7.42029 h -7.42029 z m 7.42029,0 h 7.42029 v 7.42029 h -7.42029 z m 7.42029,0 h 7.42029 v 7.42029 h -7.42029 z m 22.26087,0 h 7.42029 v 7.42029 h -7.42029 z m 14.84058,0 h 7.42029 v 7.42029 h -7.42029 z m 7.42029,0 h 7.42029 v 7.42029 h -7.42029 z m 7.42029,0 h 7.42029 v 7.42029 h -7.42029 z m 7.42029,0 h 7.42029 v 7.42029 h -7.42029 z m 7.42029,0 h 7.42029 v 7.42029 h -7.42029 z m 14.84058,0 h 7.42028 v 7.42029 h -7.42028 z m 7.42028,0 h 7.42029 v 7.42029 h -7.42029 z m 29.68116,0 h 7.42029 v 7.42029 h -7.42029 z m 7.42029,0 h 7.42029 v 7.42029 h -7.42029 z m 7.42029,0 h 7.42029 v 7.42029 h -7.42029 z m 14.84058,0 h 7.42029 v 7.42029 h -7.42029 z m 7.42029,0 h 7.42029 v 7.42029 h -7.42029 z m 14.84058,0 h 7.42029 v 7.42029 h -7.42029 z m 14.84058,0 h 7.42029 v 7.42029 h -7.42029 z m 22.26087,0 h 7.42029 v 7.42029 h -7.42029 z m 14.84058,0 h 7.42029 v 7.42029 h -7.42029 z m 29.68116,0 h 7.42029 v 7.42029 h -7.42029 z m 7.42029,0 h 7.42029 v 7.42029 h -7.42029 z m 44.52174,0 h 7.42029 v 7.42029 h -7.42029 z m -415.536231,7.42029 h 7.42029 v 7.42029 h -7.42029 z m 7.42029,0 h 7.42029 v 7.42029 h -7.42029 z m 7.42029,0 h 7.420289 v 7.42029 h -7.420289 z m 7.420289,0 h 7.42029 v 7.42029 h -7.42029 z m 14.84058,0 h 7.420292 v 7.42029 h -7.420292 z m 14.840582,0 h 7.42029 v 7.42029 h -7.42029 z m 37.10145,0 h 7.42029 v 7.42029 h -7.42029 z m 14.84058,0 h 7.42029 v 7.42029 h -7.42029 z m 7.42029,0 h 7.42029 v 7.42029 h -7.42029 z m 37.10145,0 h 7.42029 v 7.42029 h -7.42029 z m 7.42029,0 h 7.42029 v 7.42029 h -7.42029 z m 14.84058,0 h 7.42029 v 7.42029 h -7.42029 z m 14.84058,0 h 7.42029 v 7.42029 h -7.42029 z m 7.42029,0 h 7.42028 v 7.42029 h -7.42028 z m 7.42028,0 h 7.42029 v 7.42029 h -7.42029 z m 7.42029,0 h 7.42029 v 7.42029 h -7.42029 z m 14.84058,0 h 7.42029 v 7.42029 h -7.42029 z m 7.42029,0 h 7.42029 v 7.42029 h -7.42029 z m 22.26087,0 h 7.42029 v 7.42029 h -7.42029 z m 7.42029,0 h 7.42029 v 7.42029 h -7.42029 z m 29.68116,0 h 7.42029 v 7.42029 h -7.42029 z m 7.42029,0 h 7.42029 v 7.42029 h -7.42029 z m 29.68116,0 h 7.42029 v 7.42029 h -7.42029 z m 14.84058,0 h 7.42029 v 7.42029 h -7.42029 z m 7.42029,0 h 7.42029 v 7.42029 h -7.42029 z m 7.42029,0 h 7.42029 v 7.42029 h -7.42029 z m 7.42029,0 h 7.42029 v 7.42029 h -7.42029 z m 7.42029,0 h 7.42029 v 7.42029 h -7.42029 z m 7.42029,0 h 7.42029 v 7.42029 h -7.42029 z m 7.42029,0 h 7.42029 v 7.42029 h -7.42029 z m 7.42029,0 h 7.42029 v 7.42029 h -7.42029 z m 14.84058,0 h 7.42029 v 7.42029 h -7.42029 z m 7.42029,0 h 7.42029 v 7.42029 h -7.42029 z m -445.217391,7.42029 h 7.42029 v 7.42029 h -7.42029 z m 7.42029,0 h 7.42029 v 7.42029 h -7.42029 z m 14.84058,0 h 7.42029 v 7.42029 h -7.42029 z m 7.42029,0 h 7.42029 v 7.42029 h -7.42029 z m 22.260869,0 h 7.42029 v 7.42029 h -7.42029 z m 7.42029,0 h 7.42029 v 7.42029 h -7.42029 z m 14.840582,0 h 7.42029 v 7.42029 h -7.42029 z m 14.84058,0 h 7.42029 v 7.42029 h -7.42029 z m 7.42029,0 h 7.42029 v 7.42029 h -7.42029 z m 14.84058,0 h 7.42029 v 7.42029 h -7.42029 z m 14.84058,0 h 7.42029 v 7.42029 h -7.42029 z m 7.42029,0 h 7.42029 v 7.42029 h -7.42029 z m 14.84058,0 h 7.42029 v 7.42029 h -7.42029 z m 22.26087,0 h 7.42029 v 7.42029 h -7.42029 z m 7.42029,0 h 7.42029 v 7.42029 h -7.42029 z m 14.84058,0 h 7.42029 v 7.42029 h -7.42029 z m 37.10144,0 h 7.42029 v 7.42029 h -7.42029 z m 14.84058,0 h 7.42029 v 7.42029 h -7.42029 z m 44.52174,0 h 7.42029 v 7.42029 h -7.42029 z m 7.42029,0 h 7.42029 v 7.42029 h -7.42029 z m 14.84058,0 h 7.42029 v 7.42029 h -7.42029 z m 14.84058,0 h 7.42029 v 7.42029 h -7.42029 z m 7.42029,0 h 7.42029 v 7.42029 h -7.42029 z m 7.42029,0 h 7.42029 v 7.42029 h -7.42029 z m 14.84058,0 h 7.42029 v 7.42029 h -7.42029 z m 7.42029,0 h 7.42029 v 7.42029 h -7.42029 z m 22.26087,0 h 7.42029 v 7.42029 h -7.42029 z m 29.68116,0 h 7.42029 v 7.42029 h -7.42029 z m 29.68116,0 h 7.42029 v 7.42029 h -7.42029 z m -430.376811,7.42029 h 7.42029 v 7.42029 h -7.42029 z m 7.42029,0 h 7.42029 v 7.42029 h -7.42029 z m 7.42029,0 h 7.42029 v 7.42029 h -7.42029 z m 7.42029,0 h 7.42029 v 7.42029 h -7.42029 z m 7.42029,0 h 7.420289 v 7.42029 h -7.420289 z m 7.420289,0 h 7.42029 v 7.42029 h -7.42029 z m 7.42029,0 h 7.42029 v 7.42029 h -7.42029 z m 7.42029,0 h 7.420292 v 7.42029 h -7.420292 z m 37.101452,0 h 7.42029 v 7.42029 h -7.42029 z m 14.84058,0 h 7.42029 v 7.42029 h -7.42029 z m 7.42029,0 h 7.42029 v 7.42029 h -7.42029 z m 7.42029,0 h 7.42029 v 7.42029 h -7.42029 z m 14.84058,0 h 7.42029 v 7.42029 h -7.42029 z m 7.42029,0 h 7.42029 v 7.42029 h -7.42029 z m 29.68116,0 h 7.42029 v 7.42029 h -7.42029 z m 14.84058,0 h 7.42029 v 7.42029 h -7.42029 z m 7.42029,0 h 7.42029 v 7.42029 h -7.42029 z m 7.42029,0 h 7.42029 v 7.42029 h -7.42029 z m 7.42029,0 h 7.42028 v 7.42029 h -7.42028 z m 7.42028,0 h 7.42029 v 7.42029 h -7.42029 z m 7.42029,0 h 7.42029 v 7.42029 h -7.42029 z m 7.42029,0 h 7.42029 v 7.42029 h -7.42029 z m 14.84058,0 h 7.42029 v 7.42029 h -7.42029 z m 7.42029,0 h 7.42029 v 7.42029 h -7.42029 z m 14.84058,0 h 7.42029 v 7.42029 h -7.42029 z m 22.26087,0 h 7.42029 v 7.42029 h -7.42029 z m 14.84058,0 h 7.42029 v 7.42029 h -7.42029 z m 29.68116,0 h 7.42029 v 7.42029 h -7.42029 z m 7.42029,0 h 7.42029 v 7.42029 h -7.42029 z m 7.42029,0 h 7.42029 v 7.42029 h -7.42029 z m 14.84058,0 h 7.42029 v 7.42029 h -7.42029 z m 37.10145,0 h 7.42029 v 7.42029 h -7.42029 z m 7.42029,0 h 7.42029 v 7.42029 h -7.42029 z m 7.42029,0 h 7.42029 v 7.42029 h -7.42029 z m 7.42029,0 h 7.42029 v 7.42029 h -7.42029 z m 7.42029,0 h 7.42029 v 7.42029 h -7.42029 z m -445.217391,7.42029 h 7.42029 v 7.42029 h -7.42029 z m 7.42029,0 h 7.42029 v 7.42029 h -7.42029 z m 7.42029,0 h 7.42029 v 7.42029 h -7.42029 z m 7.42029,0 h 7.42029 v 7.42029 h -7.42029 z m 7.42029,0 h 7.42029 v 7.42029 h -7.42029 z m 7.42029,0 h 7.42029 v 7.42029 h -7.42029 z m 14.840579,0 h 7.42029 v 7.42029 h -7.42029 z m 7.42029,0 h 7.42029 v 7.42029 h -7.42029 z m 7.42029,0 h 7.420292 v 7.42029 h -7.420292 z m 14.840582,0 h 7.42029 v 7.42029 h -7.42029 z m 7.42029,0 h 7.42029 v 7.42029 h -7.42029 z m 7.42029,0 h 7.42029 v 7.42029 h -7.42029 z m 7.42029,0 h 7.42029 v 7.42029 h -7.42029 z m 7.42029,0 h 7.42029 v 7.42029 h -7.42029 z m 29.68116,0 h 7.42029 v 7.42029 h -7.42029 z m 22.26087,0 h 7.42029 v 7.42029 h -7.42029 z m 7.42029,0 h 7.42029 v 7.42029 h -7.42029 z m 7.42029,0 h 7.42029 v 7.42029 h -7.42029 z m 14.84058,0 h 7.42029 v 7.42029 h -7.42029 z m 29.68116,0 h 7.42028 v 7.42029 h -7.42028 z m 22.26086,0 h 7.42029 v 7.42029 h -7.42029 z m 14.84058,0 h 7.42029 v 7.42029 h -7.42029 z m 14.84058,0 h 7.42029 v 7.42029 h -7.42029 z m 14.84058,0 h 7.42029 v 7.42029 h -7.42029 z m 14.84058,0 h 7.42029 v 7.42029 h -7.42029 z m 7.42029,0 h 7.42029 v 7.42029 h -7.42029 z m 14.84058,0 h 7.42029 v 7.42029 h -7.42029 z m 22.26087,0 h 7.42029 v 7.42029 h -7.42029 z m 7.42029,0 h 7.42029 v 7.42029 h -7.42029 z m 29.68116,0 h 7.42029 v 7.42029 h -7.42029 z m 22.26087,0 h 7.42029 v 7.42029 h -7.42029 z m 22.26087,0 h 7.42029 v 7.42029 h -7.42029 z m -430.376811,7.42029 h 7.42029 v 7.42029 h -7.42029 z m 7.42029,0 h 7.42029 v 7.42029 h -7.42029 z m 22.26087,0 h 7.42029 v 7.42029 h -7.42029 z m 14.84058,0 h 7.420289 v 7.42029 h -7.420289 z m 7.420289,0 h 7.42029 v 7.42029 h -7.42029 z m 7.42029,0 h 7.42029 v 7.42029 h -7.42029 z m 7.42029,0 h 7.420292 v 7.42029 h -7.420292 z m 7.420292,0 h 7.42029 v 7.42029 h -7.42029 z m 29.68116,0 h 7.42029 v 7.42029 h -7.42029 z m 14.84058,0 h 7.42029 v 7.42029 h -7.42029 z m 7.42029,0 h 7.42029 v 7.42029 h -7.42029 z m 7.42029,0 h 7.42029 v 7.42029 h -7.42029 z m 22.26087,0 h 7.42029 v 7.42029 h -7.42029 z m 37.10145,0 h 7.42029 v 7.42029 h -7.42029 z m 7.42029,0 h 7.42029 v 7.42029 h -7.42029 z m 7.42029,0 h 7.42029 v 7.42029 h -7.42029 z m 7.42029,0 h 7.42029 v 7.42029 h -7.42029 z m 7.42029,0 h 7.42028 v 7.42029 h -7.42028 z m 7.42028,0 h 7.42029 v 7.42029 h -7.42029 z m 7.42029,0 h 7.42029 v 7.42029 h -7.42029 z m 14.84058,0 h 7.42029 v 7.42029 h -7.42029 z m 14.84058,0 h 7.42029 v 7.42029 h -7.42029 z m 7.42029,0 h 7.42029 v 7.42029 h -7.42029 z m 7.42029,0 h 7.42029 v 7.42029 h -7.42029 z m 14.84058,0 h 7.42029 v 7.42029 h -7.42029 z m 22.26087,0 h 7.42029 v 7.42029 h -7.42029 z m 7.42029,0 h 7.42029 v 7.42029 h -7.42029 z m 7.42029,0 h 7.42029 v 7.42029 h -7.42029 z m 7.42029,0 h 7.42029 v 7.42029 h -7.42029 z m 7.42029,0 h 7.42029 v 7.42029 h -7.42029 z m 7.42029,0 h 7.42029 v 7.42029 h -7.42029 z m 7.42029,0 h 7.42029 v 7.42029 h -7.42029 z m 7.42029,0 h 7.42029 v 7.42029 h -7.42029 z m 7.42029,0 h 7.42029 v 7.42029 h -7.42029 z m 7.42029,0 h 7.42029 v 7.42029 h -7.42029 z m 14.84058,0 h 7.42029 v 7.42029 h -7.42029 z m 22.26087,0 h 7.42029 v 7.42029 h -7.42029 z m 7.42029,0 h 7.42029 v 7.42029 h -7.42029 z M 44.521739,363.5942 h 7.42029 v 7.42029 h -7.42029 z m 22.26087,0 h 7.42029 v 7.42029 h -7.42029 z m 14.840579,0 h 7.42029 v 7.42029 h -7.42029 z m 7.42029,0 h 7.42029 v 7.42029 h -7.42029 z m 7.42029,0 h 7.420292 v 7.42029 h -7.420292 z m 7.420292,0 h 7.42029 v 7.42029 h -7.42029 z m 7.42029,0 h 7.42029 v 7.42029 h -7.42029 z m 7.42029,0 h 7.42029 v 7.42029 h -7.42029 z m 22.26087,0 h 7.42029 v 7.42029 h -7.42029 z m 7.42029,0 h 7.42029 v 7.42029 h -7.42029 z m 29.68116,0 h 7.42029 v 7.42029 h -7.42029 z m 7.42029,0 h 7.42029 v 7.42029 h -7.42029 z m 14.84058,0 h 7.42029 v 7.42029 h -7.42029 z m 7.42029,0 h 7.42029 v 7.42029 h -7.42029 z m 7.42029,0 h 7.42029 v 7.42029 h -7.42029 z m 7.42029,0 h 7.42029 v 7.42029 h -7.42029 z m 66.7826,0 h 7.42029 v 7.42029 h -7.42029 z m 22.26087,0 h 7.42029 v 7.42029 h -7.42029 z m 7.42029,0 h 7.42029 v 7.42029 h -7.42029 z m 7.42029,0 h 7.42029 v 7.42029 h -7.42029 z m 7.42029,0 h 7.42029 v 7.42029 h -7.42029 z m 22.26087,0 h 7.42029 v 7.42029 h -7.42029 z m 7.42029,0 h 7.42029 v 7.42029 h -7.42029 z m 7.42029,0 h 7.42029 v 7.42029 h -7.42029 z m 22.26087,0 h 7.42029 v 7.42029 h -7.42029 z m 59.36232,0 h 7.42029 v 7.42029 h -7.42029 z m 22.26087,0 h 7.42029 v 7.42029 h -7.42029 z m -437.797101,7.42029 h 7.42029 v 7.42029 h -7.42029 z m 22.26087,0 h 7.42029 v 7.42029 h -7.42029 z m 7.42029,0 h 7.42029 v 7.42029 h -7.42029 z m 7.42029,0 h 7.420289 v 7.42029 h -7.420289 z m 7.420289,0 h 7.42029 v 7.42029 h -7.42029 z m 29.681162,0 h 7.42029 v 7.42029 h -7.42029 z m 7.42029,0 h 7.42029 v 7.42029 h -7.42029 z m 14.84058,0 h 7.42029 v 7.42029 h -7.42029 z m 7.42029,0 h 7.42029 v 7.42029 h -7.42029 z m 7.42029,0 h 7.42029 v 7.42029 h -7.42029 z m 14.84058,0 h 7.42029 v 7.42029 h -7.42029 z m 7.42029,0 h 7.42029 v 7.42029 h -7.42029 z m 7.42029,0 h 7.42029 v 7.42029 h -7.42029 z m 22.26087,0 h 7.42029 v 7.42029 h -7.42029 z m 14.84058,0 h 7.42029 v 7.42029 h -7.42029 z m 14.84058,0 h 7.42029 v 7.42029 h -7.42029 z m 7.42029,0 h 7.42029 v 7.42029 h -7.42029 z m 7.42029,0 h 7.42029 v 7.42029 h -7.42029 z m 7.42029,0 h 7.42028 v 7.42029 h -7.42028 z m 7.42028,0 h 7.42029 v 7.42029 h -7.42029 z m 14.84058,0 h 7.42029 v 7.42029 h -7.42029 z m 22.26087,0 h 7.42029 v 7.42029 h -7.42029 z m 7.42029,0 h 7.42029 v 7.42029 h -7.42029 z m 29.68116,0 h 7.42029 v 7.42029 h -7.42029 z m 7.42029,0 h 7.42029 v 7.42029 h -7.42029 z m 7.42029,0 h 7.42029 v 7.42029 h -7.42029 z m 14.84058,0 h 7.42029 v 7.42029 h -7.42029 z m 22.26087,0 h 7.42029 v 7.42029 h -7.42029 z m 14.84058,0 h 7.42029 v 7.42029 h -7.42029 z m 7.42029,0 h 7.42029 v 7.42029 h -7.42029 z m 7.42029,0 h 7.42029 v 7.42029 h -7.42029 z m 7.42029,0 h 7.42029 v 7.42029 h -7.42029 z m 14.84058,0 h 7.42029 v 7.42029 h -7.42029 z m 7.42029,0 h 7.42029 v 7.42029 h -7.42029 z m 14.84058,0 h 7.42029 v 7.42029 h -7.42029 z m 7.42029,0 h 7.42029 v 7.42029 h -7.42029 z m 7.42029,0 h 7.42029 v 7.42029 h -7.42029 z m -445.217391,7.42029 h 7.42029 v 7.42029 h -7.42029 z m 22.26087,0 h 7.42029 v 7.42029 h -7.42029 z m 14.84058,0 h 7.42029 v 7.42029 h -7.42029 z m 22.260869,0 h 7.42029 v 7.42029 h -7.42029 z m 14.840582,0 h 7.42029 v 7.42029 h -7.42029 z m 7.42029,0 h 7.42029 v 7.42029 h -7.42029 z m 7.42029,0 h 7.42029 v 7.42029 h -7.42029 z m 7.42029,0 h 7.42029 v 7.42029 h -7.42029 z m 44.52174,0 h 7.42029 v 7.42029 h -7.42029 z m 14.84058,0 h 7.42029 v 7.42029 h -7.42029 z m 7.42029,0 h 7.42029 v 7.42029 h -7.42029 z m 14.84058,0 h 7.42029 v 7.42029 h -7.42029 z m 7.42029,0 h 7.42029 v 7.42029 h -7.42029 z m 7.42029,0 h 7.42029 v 7.42029 h -7.42029 z m 14.84058,0 h 7.42029 v 7.42029 h -7.42029 z m 14.84058,0 h 7.42028 v 7.42029 h -7.42028 z m 7.42028,0 h 7.42029 v 7.42029 h -7.42029 z m 29.68116,0 h 7.42029 v 7.42029 h -7.42029 z m 7.42029,0 h 7.42029 v 7.42029 h -7.42029 z m 29.68116,0 h 7.42029 v 7.42029 h -7.42029 z m 7.42029,0 h 7.42029 v 7.42029 h -7.42029 z m 7.42029,0 h 7.42029 v 7.42029 h -7.42029 z m 7.42029,0 h 7.42029 v 7.42029 h -7.42029 z m 7.42029,0 h 7.42029 v 7.42029 h -7.42029 z m 37.10145,0 h 7.42029 v 7.42029 h -7.42029 z m 14.84058,0 h 7.42029 v 7.42029 h -7.42029 z m 7.42029,0 h 7.42029 v 7.42029 h -7.42029 z m 7.42029,0 h 7.42029 v 7.42029 h -7.42029 z m 14.84058,0 h 7.42029 v 7.42029 h -7.42029 z m 14.84058,0 h 7.42029 v 7.42029 h -7.42029 z m 22.26087,0 h 7.42029 v 7.42029 h -7.42029 z m -445.217391,7.42029 h 7.42029 v 7.42029 h -7.42029 z m 7.42029,0 h 7.42029 v 7.42029 h -7.42029 z m 7.42029,0 h 7.42029 v 7.42029 h -7.42029 z m 29.68116,0 h 7.420289 v 7.42029 h -7.420289 z m 7.420289,0 h 7.42029 v 7.42029 h -7.42029 z m 7.42029,0 h 7.42029 v 7.42029 h -7.42029 z m 22.260872,0 h 7.42029 v 7.42029 h -7.42029 z m 7.42029,0 h 7.42029 v 7.42029 h -7.42029 z m 37.10145,0 h 7.42029 v 7.42029 h -7.42029 z m 7.42029,0 h 7.42029 v 7.42029 h -7.42029 z m 14.84058,0 h 7.42029 v 7.42029 h -7.42029 z m 14.84058,0 h 7.42029 v 7.42029 h -7.42029 z m 7.42029,0 h 7.42029 v 7.42029 h -7.42029 z m 14.84058,0 h 7.42029 v 7.42029 h -7.42029 z m 14.84058,0 h 7.42029 v 7.42029 h -7.42029 z m 7.42029,0 h 7.42029 v 7.42029 h -7.42029 z m 7.42029,0 h 7.42029 v 7.42029 h -7.42029 z m 7.42029,0 h 7.42028 v 7.42029 h -7.42028 z m 14.84057,0 h 7.42029 v 7.42029 h -7.42029 z m 7.42029,0 h 7.42029 v 7.42029 h -7.42029 z m 7.42029,0 h 7.42029 v 7.42029 h -7.42029 z m 7.42029,0 h 7.42029 v 7.42029 h -7.42029 z m 22.26087,0 h 7.42029 v 7.42029 h -7.42029 z m 14.84058,0 h 7.42029 v 7.42029 h -7.42029 z m 14.84058,0 h 7.42029 v 7.42029 h -7.42029 z m 14.84058,0 h 7.42029 v 7.42029 h -7.42029 z m 7.42029,0 h 7.42029 v 7.42029 h -7.42029 z m 7.42029,0 h 7.42029 v 7.42029 h -7.42029 z m 7.42029,0 h 7.42029 v 7.42029 h -7.42029 z m 29.68116,0 h 7.42029 v 7.42029 h -7.42029 z m 7.42029,0 h 7.42029 v 7.42029 h -7.42029 z m 7.42029,0 h 7.42029 v 7.42029 h -7.42029 z m 7.42029,0 h 7.42029 v 7.42029 h -7.42029 z m 14.84058,0 h 7.42029 v 7.42029 h -7.42029 z m 14.84058,0 h 7.42029 v 7.42029 h -7.42029 z m 7.42029,0 h 7.42029 v 7.42029 h -7.42029 z m 7.42029,0 h 7.42029 v 7.42029 h -7.42029 z m -445.217391,7.42029 h 7.42029 v 7.42029 h -7.42029 z m 14.84058,0 h 7.42029 v 7.42029 h -7.42029 z m 22.26087,0 h 7.42029 v 7.42029 h -7.42029 z m 14.840579,0 h 7.42029 v 7.42029 h -7.42029 z m 7.42029,0 h 7.42029 v 7.42029 h -7.42029 z m 14.840582,0 h 7.42029 v 7.42029 h -7.42029 z m 14.84058,0 h 7.42029 v 7.42029 h -7.42029 z m 14.84058,0 h 7.42029 v 7.42029 h -7.42029 z m 7.42029,0 h 7.42029 v 7.42029 h -7.42029 z m 14.84058,0 h 7.42029 v 7.42029 h -7.42029 z m 7.42029,0 h 7.42029 v 7.42029 h -7.42029 z m 7.42029,0 h 7.42029 v 7.42029 h -7.42029 z m 22.26087,0 h 7.42029 v 7.42029 h -7.42029 z m 14.84058,0 h 7.42029 v 7.42029 h -7.42029 z m 22.26087,0 h 7.42029 v 7.42029 h -7.42029 z m 29.68115,0 h 7.42029 v 7.42029 h -7.42029 z m 14.84058,0 h 7.42029 v 7.42029 h -7.42029 z m 7.42029,0 h 7.42029 v 7.42029 h -7.42029 z m 22.26087,0 h 7.42029 v 7.42029 h -7.42029 z m 22.26087,0 h 7.42029 v 7.42029 h -7.42029 z m 7.42029,0 h 7.42029 v 7.42029 h -7.42029 z m 7.42029,0 h 7.42029 v 7.42029 h -7.42029 z m 22.26087,0 h 7.42029 v 7.42029 h -7.42029 z m 29.68116,0 h 7.42029 v 7.42029 h -7.42029 z m 29.68116,0 h 7.42029 v 7.42029 h -7.42029 z m 7.42029,0 h 7.42029 v 7.42029 h -7.42029 z m 7.42029,0 h 7.42029 v 7.42029 h -7.42029 z m 29.68116,0 h 7.42029 v 7.42029 h -7.42029 z m 7.42029,0 h 7.42029 v 7.42029 h -7.42029 z m -430.376811,7.42029 h 7.42029 v 7.42029 h -7.42029 z m 7.42029,0 h 7.42029 v 7.42029 h -7.42029 z m 7.42029,0 h 7.42029 v 7.42029 h -7.42029 z m 7.42029,0 h 7.42029 v 7.42029 h -7.42029 z m 7.42029,0 h 7.420289 v 7.42029 h -7.420289 z m 7.420289,0 h 7.42029 v 7.42029 h -7.42029 z m 7.42029,0 h 7.42029 v 7.42029 h -7.42029 z m 7.42029,0 h 7.420292 v 7.42029 h -7.420292 z m 14.840582,0 h 7.42029 v 7.42029 h -7.42029 z m 7.42029,0 h 7.42029 v 7.42029 h -7.42029 z m 14.84058,0 h 7.42029 v 7.42029 h -7.42029 z m 22.26087,0 h 7.42029 v 7.42029 h -7.42029 z m 7.42029,0 h 7.42029 v 7.42029 h -7.42029 z m 22.26087,0 h 7.42029 v 7.42029 h -7.42029 z m 14.84058,0 h 7.42029 v 7.42029 h -7.42029 z m 14.84058,0 h 7.42029 v 7.42029 h -7.42029 z m 29.68116,0 h 7.42029 v 7.42029 h -7.42029 z m 7.42029,0 h 7.42028 v 7.42029 h -7.42028 z m 7.42028,0 h 7.42029 v 7.42029 h -7.42029 z m 22.26087,0 h 7.42029 v 7.42029 h -7.42029 z m 7.42029,0 h 7.42029 v 7.42029 h -7.42029 z m 7.42029,0 h 7.42029 v 7.42029 h -7.42029 z m 14.84058,0 h 7.42029 v 7.42029 h -7.42029 z m 7.42029,0 h 7.42029 v 7.42029 h -7.42029 z m 14.84058,0 h 7.42029 v 7.42029 h -7.42029 z m 7.42029,0 h 7.42029 v 7.42029 h -7.42029 z m 7.42029,0 h 7.42029 v 7.42029 h -7.42029 z m 22.26087,0 h 7.42029 v 7.42029 h -7.42029 z m 14.84058,0 h 7.42029 v 7.42029 h -7.42029 z m 22.26087,0 h 7.42029 v 7.42029 h -7.42029 z m 7.42029,0 h 7.42029 v 7.42029 h -7.42029 z m 22.26087,0 h 7.42029 v 7.42029 h -7.42029 z m 7.42029,0 h 7.42029 v 7.42029 h -7.42029 z m 14.84058,0 h 7.42029 v 7.42029 h -7.42029 z m 7.42029,0 h 7.42029 v 7.42029 h -7.42029 z m 7.42029,0 h 7.42029 v 7.42029 h -7.42029 z m -445.217391,7.42029 h 7.42029 v 7.42029 h -7.42029 z m 7.42029,0 h 7.42029 v 7.42029 h -7.42029 z m 7.42029,0 h 7.42029 v 7.42029 h -7.42029 z m 14.84058,0 h 7.42029 v 7.42029 h -7.42029 z m 22.260869,0 h 7.42029 v 7.42029 h -7.42029 z m 14.84058,0 h 7.420292 v 7.42029 h -7.420292 z m 14.840582,0 h 7.42029 v 7.42029 h -7.42029 z m 7.42029,0 h 7.42029 v 7.42029 h -7.42029 z m 22.26087,0 h 7.42029 v 7.42029 h -7.42029 z m 22.26087,0 h 7.42029 v 7.42029 h -7.42029 z m 7.42029,0 h 7.42029 v 7.42029 h -7.42029 z m 22.26087,0 h 7.42029 v 7.42029 h -7.42029 z m 7.42029,0 h 7.42029 v 7.42029 h -7.42029 z m 7.42029,0 h 7.42029 v 7.42029 h -7.42029 z m 29.68116,0 h 7.42029 v 7.42029 h -7.42029 z m 22.26086,0 h 7.42029 v 7.42029 h -7.42029 z m 14.84058,0 h 7.42029 v 7.42029 h -7.42029 z m 44.52174,0 h 7.42029 v 7.42029 h -7.42029 z m 7.42029,0 h 7.42029 v 7.42029 h -7.42029 z m 7.42029,0 h 7.42029 v 7.42029 h -7.42029 z m 7.42029,0 h 7.42029 v 7.42029 h -7.42029 z m 7.42029,0 h 7.42029 v 7.42029 h -7.42029 z m 44.52174,0 h 7.42029 v 7.42029 h -7.42029 z m 44.52174,0 h 7.42029 v 7.42029 h -7.42029 z m 14.84058,0 h 7.42029 v 7.42029 h -7.42029 z m -422.956521,7.42029 h 7.42029 v 7.42029 h -7.42029 z m 7.42029,0 h 7.42029 v 7.42029 h -7.42029 z m 7.42029,0 h 7.42029 v 7.42029 h -7.42029 z m 7.42029,0 h 7.42029 v 7.42029 h -7.42029 z m 22.26087,0 h 7.420289 v 7.42029 h -7.420289 z m 59.362321,0 h 7.42029 v 7.42029 h -7.42029 z m 7.42029,0 h 7.42029 v 7.42029 h -7.42029 z m 14.84058,0 h 7.42029 v 7.42029 h -7.42029 z m 7.42029,0 h 7.42029 v 7.42029 h -7.42029 z m 7.42029,0 h 7.42029 v 7.42029 h -7.42029 z m 7.42029,0 h 7.42029 v 7.42029 h -7.42029 z m 29.68116,0 h 7.42029 v 7.42029 h -7.42029 z m 22.26087,0 h 7.42029 v 7.42029 h -7.42029 z m 7.42029,0 h 7.42029 v 7.42029 h -7.42029 z m 7.42029,0 h 7.42029 v 7.42029 h -7.42029 z m 7.42029,0 h 7.42028 v 7.42029 h -7.42028 z m 7.42028,0 h 7.42029 v 7.42029 h -7.42029 z m 7.42029,0 h 7.42029 v 7.42029 h -7.42029 z m 14.84058,0 h 7.42029 v 7.42029 h -7.42029 z m 14.84058,0 h 7.42029 v 7.42029 h -7.42029 z m 14.84058,0 h 7.42029 v 7.42029 h -7.42029 z m 37.10145,0 h 7.42029 v 7.42029 h -7.42029 z m 7.42029,0 h 7.42029 v 7.42029 h -7.42029 z m 14.84058,0 h 7.42029 v 7.42029 h -7.42029 z m 14.84058,0 h 7.42029 v 7.42029 h -7.42029 z m 14.84058,0 h 7.42029 v 7.42029 h -7.42029 z m 7.42029,0 h 7.42029 v 7.42029 h -7.42029 z m 7.42029,0 h 7.42029 v 7.42029 h -7.42029 z m 7.42029,0 h 7.42029 v 7.42029 h -7.42029 z m 7.42029,0 h 7.42029 v 7.42029 h -7.42029 z m 7.42029,0 h 7.42029 v 7.42029 h -7.42029 z m 7.42029,0 h 7.42029 v 7.42029 h -7.42029 z m 7.42029,0 h 7.42029 v 7.42029 h -7.42029 z m 7.42029,0 h 7.42029 v 7.42029 h -7.42029 z m 14.84058,0 h 7.42029 v 7.42029 h -7.42029 z m -385.855072,7.42029 h 7.42029 v 7.42029 h -7.42029 z m 14.840582,0 h 7.42029 v 7.42029 h -7.42029 z m 14.84058,0 h 7.42029 v 7.42029 h -7.42029 z m 7.42029,0 h 7.42029 v 7.42029 h -7.42029 z m 14.84058,0 h 7.42029 v 7.42029 h -7.42029 z m 7.42029,0 h 7.42029 v 7.42029 h -7.42029 z m 37.10145,0 h 7.42029 v 7.42029 h -7.42029 z m 7.42029,0 h 7.42029 v 7.42029 h -7.42029 z m 14.84058,0 h 7.42029 v 7.42029 h -7.42029 z m 14.84058,0 h 7.42029 v 7.42029 h -7.42029 z m 7.42029,0 h 7.42029 v 7.42029 h -7.42029 z m 7.42029,0 h 7.42029 v 7.42029 h -7.42029 z m 29.68115,0 h 7.42029 v 7.42029 h -7.42029 z m 22.26087,0 h 7.42029 v 7.42029 h -7.42029 z m 14.84058,0 h 7.42029 v 7.42029 h -7.42029 z m 14.84058,0 h 7.42029 v 7.42029 h -7.42029 z m 7.42029,0 h 7.42029 v 7.42029 h -7.42029 z m 29.68116,0 h 7.42029 v 7.42029 h -7.42029 z m 7.42029,0 h 7.42029 v 7.42029 h -7.42029 z m 14.84058,0 h 7.42029 v 7.42029 h -7.42029 z m 14.84058,0 h 7.42029 v 7.42029 h -7.42029 z m 7.42029,0 h 7.42029 v 7.42029 h -7.42029 z m 14.84058,0 h 7.42029 v 7.42029 h -7.42029 z m 29.68116,0 h 7.42029 v 7.42029 h -7.42029 z m 22.26087,0 h 7.42029 v 7.42029 h -7.42029 z m 7.42029,0 h 7.42029 v 7.42029 h -7.42029 z m -445.217391,7.42029 h 7.42029 v 7.42029 h -7.42029 z m 7.42029,0 h 7.42029 v 7.42029 h -7.42029 z m 7.42029,0 h 7.42029 v 7.42029 h -7.42029 z m 7.42029,0 h 7.42029 v 7.42029 h -7.42029 z m 7.42029,0 h 7.42029 v 7.42029 h -7.42029 z m 7.42029,0 h 7.42029 v 7.42029 h -7.42029 z m 7.42029,0 h 7.420289 v 7.42029 h -7.420289 z m 14.840579,0 h 7.42029 v 7.42029 h -7.42029 z m 14.840582,0 h 7.42029 v 7.42029 h -7.42029 z m 7.42029,0 h 7.42029 v 7.42029 h -7.42029 z m 7.42029,0 h 7.42029 v 7.42029 h -7.42029 z m 29.68116,0 h 7.42029 v 7.42029 h -7.42029 z m 7.42029,0 h 7.42029 v 7.42029 h -7.42029 z m 14.84058,0 h 7.42029 v 7.42029 h -7.42029 z m 7.42029,0 h 7.42029 v 7.42029 h -7.42029 z m 22.26087,0 h 7.42029 v 7.42029 h -7.42029 z m 7.42029,0 h 7.42029 v 7.42029 h -7.42029 z m 29.68116,0 h 7.42029 v 7.42029 h -7.42029 z m 14.84058,0 h 7.42028 v 7.42029 h -7.42028 z m 14.84057,0 h 7.42029 v 7.42029 h -7.42029 z m 7.42029,0 h 7.42029 v 7.42029 h -7.42029 z m 22.26087,0 h 7.42029 v 7.42029 h -7.42029 z m 7.42029,0 h 7.42029 v 7.42029 h -7.42029 z m 37.10145,0 h 7.42029 v 7.42029 h -7.42029 z m 7.42029,0 h 7.42029 v 7.42029 h -7.42029 z m 22.26087,0 h 7.42029 v 7.42029 h -7.42029 z m 7.42029,0 h 7.42029 v 7.42029 h -7.42029 z m 7.42029,0 h 7.42029 v 7.42029 h -7.42029 z m 7.42029,0 h 7.42029 v 7.42029 h -7.42029 z m 22.26087,0 h 7.42029 v 7.42029 h -7.42029 z m 14.84058,0 h 7.42029 v 7.42029 h -7.42029 z m 14.84058,0 h 7.42029 v 7.42029 h -7.42029 z m 14.84058,0 h 7.42029 v 7.42029 h -7.42029 z m 7.42029,0 h 7.42029 v 7.42029 h -7.42029 z m 7.42029,0 h 7.42029 v 7.42029 h -7.42029 z M 29.681159,437.7971 h 7.42029 v 7.42029 h -7.42029 z m 44.52174,0 h 7.420289 v 7.42029 h -7.420289 z m 22.260869,0 h 7.420292 v 7.42029 h -7.420292 z m 7.420292,0 h 7.42029 v 7.42029 h -7.42029 z m 14.84058,0 h 7.42029 v 7.42029 h -7.42029 z m 7.42029,0 h 7.42029 v 7.42029 h -7.42029 z m 7.42029,0 h 7.42029 v 7.42029 h -7.42029 z m 7.42029,0 h 7.42029 v 7.42029 h -7.42029 z m 51.94203,0 h 7.42029 v 7.42029 h -7.42029 z m 7.42029,0 h 7.42029 v 7.42029 h -7.42029 z m 7.42029,0 h 7.42029 v 7.42029 h -7.42029 z m 7.42029,0 h 7.42029 v 7.42029 h -7.42029 z m 7.42029,0 h 7.42029 v 7.42029 h -7.42029 z m 7.42029,0 h 7.42029 v 7.42029 h -7.42029 z m 7.42029,0 h 7.42029 v 7.42029 h -7.42029 z m 29.68115,0 h 7.42029 v 7.42029 h -7.42029 z m 7.42029,0 h 7.42029 v 7.42029 h -7.42029 z m 14.84058,0 h 7.42029 v 7.42029 h -7.42029 z m 14.84058,0 h 7.42029 v 7.42029 h -7.42029 z m 37.10145,0 h 7.42029 v 7.42029 h -7.42029 z m 7.42029,0 h 7.42029 v 7.42029 h -7.42029 z m 7.42029,0 h 7.42029 v 7.42029 h -7.42029 z m 22.26087,0 h 7.42029 v 7.42029 h -7.42029 z m 7.42029,0 h 7.42029 v 7.42029 h -7.42029 z m 7.42029,0 h 7.42029 v 7.42029 h -7.42029 z m 22.26087,0 h 7.42029 v 7.42029 h -7.42029 z m 29.68116,0 h 7.42029 v 7.42029 h -7.42029 z m 22.26087,0 h 7.42029 v 7.42029 h -7.42029 z m 7.42029,0 h 7.42029 v 7.42029 h -7.42029 z m -445.217391,7.42029 h 7.42029 v 7.42029 h -7.42029 z m 14.84058,0 h 7.42029 v 7.42029 h -7.42029 z m 7.42029,0 h 7.42029 v 7.42029 h -7.42029 z m 7.42029,0 h 7.42029 v 7.42029 h -7.42029 z m 14.84058,0 h 7.420289 v 7.42029 h -7.420289 z m 14.840579,0 h 7.42029 v 7.42029 h -7.42029 z m 51.942032,0 h 7.42029 v 7.42029 h -7.42029 z m 7.42029,0 h 7.42029 v 7.42029 h -7.42029 z m 7.42029,0 h 7.42029 v 7.42029 h -7.42029 z m 22.26087,0 h 7.42029 v 7.42029 h -7.42029 z m 7.42029,0 h 7.42029 v 7.42029 h -7.42029 z m 29.68116,0 h 7.42029 v 7.42029 h -7.42029 z m 22.26087,0 h 7.42029 v 7.42029 h -7.42029 z m 7.42029,0 h 7.42029 v 7.42029 h -7.42029 z m 7.42029,0 h 7.42028 v 7.42029 h -7.42028 z m 7.42028,0 h 7.42029 v 7.42029 h -7.42029 z m 7.42029,0 h 7.42029 v 7.42029 h -7.42029 z m 7.42029,0 h 7.42029 v 7.42029 h -7.42029 z m 7.42029,0 h 7.42029 v 7.42029 h -7.42029 z m 14.84058,0 h 7.42029 v 7.42029 h -7.42029 z m 7.42029,0 h 7.42029 v 7.42029 h -7.42029 z m 14.84058,0 h 7.42029 v 7.42029 h -7.42029 z m 29.68116,0 h 7.42029 v 7.42029 h -7.42029 z m 7.42029,0 h 7.42029 v 7.42029 h -7.42029 z m 7.42029,0 h 7.42029 v 7.42029 h -7.42029 z m 14.84058,0 h 7.42029 v 7.42029 h -7.42029 z m 14.84058,0 h 7.42029 v 7.42029 h -7.42029 z m 7.42029,0 h 7.42029 v 7.42029 h -7.42029 z m 7.42029,0 h 7.42029 v 7.42029 h -7.42029 z m 7.42029,0 h 7.42029 v 7.42029 h -7.42029 z m 7.42029,0 h 7.42029 v 7.42029 h -7.42029 z m 7.42029,0 h 7.42029 v 7.42029 h -7.42029 z m 7.42029,0 h 7.42029 v 7.42029 h -7.42029 z m 7.42029,0 h 7.42029 v 7.42029 h -7.42029 z m 7.42029,0 h 7.42029 v 7.42029 h -7.42029 z m 14.84058,0 h 7.42029 v 7.42029 h -7.42029 z m 7.42029,0 h 7.42029 v 7.42029 h -7.42029 z m -445.217391,7.42029 h 7.42029 v 7.42029 h -7.42029 z m 14.84058,0 h 7.42029 v 7.42029 h -7.42029 z m 7.42029,0 h 7.42029 v 7.42029 h -7.42029 z m 7.42029,0 h 7.42029 v 7.42029 h -7.42029 z m 14.84058,0 h 7.420289 v 7.42029 h -7.420289 z m 14.840579,0 h 7.42029 v 7.42029 h -7.42029 z m 7.42029,0 h 7.420292 v 7.42029 h -7.420292 z m 7.420292,0 h 7.42029 v 7.42029 h -7.42029 z m 29.68116,0 h 7.42029 v 7.42029 h -7.42029 z m 7.42029,0 h 7.42029 v 7.42029 h -7.42029 z m 22.26087,0 h 7.42029 v 7.42029 h -7.42029 z m 7.42029,0 h 7.42029 v 7.42029 h -7.42029 z m 7.42029,0 h 7.42029 v 7.42029 h -7.42029 z m 29.68116,0 h 7.42029 v 7.42029 h -7.42029 z m 7.42029,0 h 7.42029 v 7.42029 h -7.42029 z m 7.42029,0 h 7.42029 v 7.42029 h -7.42029 z m 7.42029,0 h 7.42029 v 7.42029 h -7.42029 z m 7.42029,0 h 7.42029 v 7.42029 h -7.42029 z m 7.42029,0 h 7.42029 v 7.42029 h -7.42029 z m 14.84057,0 h 7.42029 v 7.42029 h -7.42029 z m 7.42029,0 h 7.42029 v 7.42029 h -7.42029 z m 22.26087,0 h 7.42029 v 7.42029 h -7.42029 z m 29.68116,0 h 7.42029 v 7.42029 h -7.42029 z m 14.84058,0 h 7.42029 v 7.42029 h -7.42029 z m 22.26087,0 h 7.42029 v 7.42029 h -7.42029 z m 29.68116,0 h 7.42029 v 7.42029 h -7.42029 z m 14.84058,0 h 7.42029 v 7.42029 h -7.42029 z m 14.84058,0 h 7.42029 v 7.42029 h -7.42029 z m 14.84058,0 h 7.42029 v 7.42029 h -7.42029 z m 22.26087,0 h 7.42029 v 7.42029 h -7.42029 z m 14.84058,0 h 7.42029 v 7.42029 h -7.42029 z m 7.42029,0 h 7.42029 v 7.42029 h -7.42029 z m -445.217391,7.42029 h 7.42029 v 7.42029 h -7.42029 z m 14.84058,0 h 7.42029 v 7.42029 h -7.42029 z m 7.42029,0 h 7.42029 v 7.42029 h -7.42029 z m 7.42029,0 h 7.42029 v 7.42029 h -7.42029 z m 14.84058,0 h 7.420289 v 7.42029 h -7.420289 z m 14.840579,0 h 7.42029 v 7.42029 h -7.42029 z m 7.42029,0 h 7.420292 v 7.42029 h -7.420292 z m 37.101452,0 h 7.42029 v 7.42029 h -7.42029 z m 14.84058,0 h 7.42029 v 7.42029 h -7.42029 z m 7.42029,0 h 7.42029 v 7.42029 h -7.42029 z m 7.42029,0 h 7.42029 v 7.42029 h -7.42029 z m 14.84058,0 h 7.42029 v 7.42029 h -7.42029 z m 22.26087,0 h 7.42029 v 7.42029 h -7.42029 z m 14.84058,0 h 7.42029 v 7.42029 h -7.42029 z m 29.68116,0 h 7.42029 v 7.42029 h -7.42029 z m 44.52173,0 h 7.42029 v 7.42029 h -7.42029 z m 7.42029,0 h 7.42029 v 7.42029 h -7.42029 z m 7.42029,0 h 7.42029 v 7.42029 h -7.42029 z m 7.42029,0 h 7.42029 v 7.42029 h -7.42029 z m 22.26087,0 h 7.42029 v 7.42029 h -7.42029 z m 14.84058,0 h 7.42029 v 7.42029 h -7.42029 z m 14.84058,0 h 7.42029 v 7.42029 h -7.42029 z m 14.84058,0 h 7.42029 v 7.42029 h -7.42029 z m 7.42029,0 h 7.42029 v 7.42029 h -7.42029 z m 22.26087,0 h 7.42029 v 7.42029 h -7.42029 z m 14.84058,0 h 7.42029 v 7.42029 h -7.42029 z m 14.84058,0 h 7.42029 v 7.42029 h -7.42029 z m 22.26087,0 h 7.42029 v 7.42029 h -7.42029 z m 14.84058,0 h 7.42029 v 7.42029 h -7.42029 z m -445.217391,7.42029 h 7.42029 v 7.42029 h -7.42029 z m 44.52174,0 h 7.420289 v 7.42029 h -7.420289 z m 14.840579,0 h 7.42029 v 7.42029 h -7.42029 z m 7.42029,0 h 7.420292 v 7.42029 h -7.420292 z m 7.420292,0 h 7.42029 v 7.42029 h -7.42029 z m 7.42029,0 h 7.42029 v 7.42029 h -7.42029 z m 14.84058,0 h 7.42029 v 7.42029 h -7.42029 z m 7.42029,0 h 7.42029 v 7.42029 h -7.42029 z m 7.42029,0 h 7.42029 v 7.42029 h -7.42029 z m 22.26087,0 h 7.42029 v 7.42029 h -7.42029 z m 7.42029,0 h 7.42029 v 7.42029 h -7.42029 z m 22.26087,0 h 7.42029 v 7.42029 h -7.42029 z m 14.84058,0 h 7.42029 v 7.42029 h -7.42029 z m 44.52174,0 h 7.42028 v 7.42029 h -7.42028 z m 51.94202,0 h 7.42029 v 7.42029 h -7.42029 z m 14.84058,0 h 7.42029 v 7.42029 h -7.42029 z m 14.84058,0 h 7.42029 v 7.42029 h -7.42029 z m 7.42029,0 h 7.42029 v 7.42029 h -7.42029 z m 7.42029,0 h 7.42029 v 7.42029 h -7.42029 z m 29.68116,0 h 7.42029 v 7.42029 h -7.42029 z m 14.84058,0 h 7.42029 v 7.42029 h -7.42029 z m 22.26087,0 h 7.42029 v 7.42029 h -7.42029 z m 14.84058,0 h 7.42029 v 7.42029 h -7.42029 z m 37.10145,0 h 7.42029 v 7.42029 h -7.42029 z m -437.797101,7.42029 h 7.42029 v 7.42029 h -7.42029 z m 7.42029,0 h 7.42029 v 7.42029 h -7.42029 z m 7.42029,0 h 7.42029 v 7.42029 h -7.42029 z m 7.42029,0 h 7.42029 v 7.42029 h -7.42029 z m 7.42029,0 h 7.42029 v 7.42029 h -7.42029 z m 7.42029,0 h 7.42029 v 7.42029 h -7.42029 z m 7.42029,0 h 7.420289 v 7.42029 h -7.420289 z m 14.840579,0 h 7.42029 v 7.42029 h -7.42029 z m 51.942032,0 h 7.42029 v 7.42029 h -7.42029 z m 37.10145,0 h 7.42029 v 7.42029 h -7.42029 z m 7.42029,0 h 7.42029 v 7.42029 h -7.42029 z m 14.84058,0 h 7.42029 v 7.42029 h -7.42029 z m 7.42029,0 h 7.42029 v 7.42029 h -7.42029 z m 14.84058,0 h 7.42029 v 7.42029 h -7.42029 z m 37.10144,0 h 7.42029 v 7.42029 h -7.42029 z m 14.84058,0 h 7.42029 v 7.42029 h -7.42029 z m 22.26087,0 h 7.42029 v 7.42029 h -7.42029 z m 7.42029,0 h 7.42029 v 7.42029 h -7.42029 z m 7.42029,0 h 7.42029 v 7.42029 h -7.42029 z m 7.42029,0 h 7.42029 v 7.42029 h -7.42029 z m 14.84058,0 h 7.42029 v 7.42029 h -7.42029 z m 14.84058,0 h 7.42029 v 7.42029 h -7.42029 z m 7.42029,0 h 7.42029 v 7.42029 h -7.42029 z m 7.42029,0 h 7.42029 v 7.42029 h -7.42029 z m 7.42029,0 h 7.42029 v 7.42029 h -7.42029 z m 7.42029,0 h 7.42029 v 7.42029 h -7.42029 z m 7.42029,0 h 7.42029 v 7.42029 h -7.42029 z m 7.42029,0 h 7.42029 v 7.42029 h -7.42029 z m 7.42029,0 h 7.42029 v 7.42029 h -7.42029 z m 37.10145,0 h 7.42029 v 7.42029 h -7.42029 z m 14.84058,0 h 7.42029 v 7.42029 h -7.42029 z m 7.42029,0 h 7.42029 v 7.42029 h -7.42029 z m 7.42029,0 h 7.42029 v 7.42029 h -7.42029 z m 7.42029,0 h 7.42029 v 7.42029 h -7.42029 z"
     id="path2"
     style="stroke-width:7.42029" />
</svg>
